/* XPM */
static char *brick[] = {
/* columns rows colors chars-per-pixel */
"64 64 94 2 ",
"   c #2D1A1A",
".  c #341E1E",
"X  c #262524",
"o  c #3A2121",
"O  c #302F2D",
"+  c #343331",
"@  c #3E3D3B",
"#  c #441D1D",
"$  c #481F1F",
"%  c #45201D",
"&  c #48221F",
"*  c #4B2120",
"=  c #542323",
"-  c #5C2424",
";  c #5F2925",
":  c #5E2828",
">  c #403F3C",
",  c #622726",
"<  c #682723",
"1  c #622A26",
"2  c #6D2926",
"3  c #642928",
"4  c #6C2B2B",
"5  c #742C25",
"6  c #7B2C24",
"7  c #732E2C",
"8  c #782F2A",
"9  c #6E312C",
"0  c #74322D",
"q  c #7C322C",
"w  c #7E392F",
"e  c #763230",
"r  c #793332",
"t  c #41403D",
"y  c #474643",
"u  c #504E4C",
"i  c #53514E",
"p  c #6C6966",
"a  c #6E6D69",
"s  c #706E6B",
"d  c #74736F",
"f  c #802F27",
"g  c #83342C",
"h  c #8A362C",
"j  c #85382F",
"k  c #8E392F",
"l  c #9A3625",
"z  c #9D3927",
"x  c #953C2D",
"c  c #993E2E",
"v  c #833631",
"b  c #843B31",
"n  c #8A3A32",
"m  c #913C31",
"M  c #9C3F30",
"N  c #A23E2A",
"B  c #99402F",
"V  c #9C4332",
"C  c #A5432E",
"Z  c #A8452F",
"A  c #A64A2E",
"S  c #A54631",
"D  c #A94731",
"F  c #A74832",
"G  c #AB4932",
"H  c #AB5132",
"J  c #C3563F",
"K  c #C35E3F",
"L  c #846B66",
"P  c #856E69",
"I  c #87726C",
"U  c #89746E",
"Y  c #8B7771",
"T  c #8E7C76",
"R  c #8F7F79",
"E  c #91827C",
"W  c #938680",
"Q  c #958B85",
"!  c #978E88",
"~  c #97908A",
"^  c #99948D",
"/  c #9B9790",
"(  c #9B9891",
")  c #B49286",
"_  c #B89E91",
"`  c #B9A38F",
"'  c #B9A495",
"]  c #BAA799",
"[  c #BBAC9D",
"{  c #BDB09F",
"}  c #BEB3A4",
"|  c #BEB7A9",
" . c #BFB9AA",
".. c #C0BBAD",
/* pixels */
"( 1 : r r r r r r r r r r v r v v r r v r r r r r r r r r r ........r r r r r r r r r r r r r r r r r r r r r r v r r n n n ..( ",
"1 : 3 G G G G G G G M m m m m r r r r r r r r v r m m m v m m ....r J J J J r r r r r r r r r r r r r r r G r v J n n n r r e ( ",
": G G G G G G G G m G G m F F F F F G G G G G G m m m G m m m ..r J G G G G G G J G G G S G G G G G F r G G G S V S v r r r : ..",
": G G G G G G G G G G G G m G G G G G G G G G G G m G G G m m ..r J G G J G G G G G G F J S G S G F G F G G S n S S n n r r : ..",
": G D D D G m D D G G G m G m m m m G G G D S D G G F S m m m ..r G G G G G G G G G G G G G G N F D v F G G S G S G n v n r r ..",
": G D D D m n m G D m G m m m m D m m D F S D S F F S F m r m ..r G G G G n G F F G F G G G G M F F n D S n G S S S G G n r r ..",
": S n k m m n x k m m m m m m m m k m m m D D S F S r m m r m ..r G G n G n v G G n n G m G n n n S n n n n n n n n m v v S v ..",
"- S n k C k k k k k k k k k r n m k m n m m n m n m r r r r r ..r F S F G v G n v n G n n n v n n n v n n v v n n v v v v r r | ",
"- n h k k h 7 k k e k n n e 7 e e n k n N m k e k n e e e r e  .r S n S v v N v n n v n v n n v r r r v v v v v v v v v v v v W ",
"= h h h h n 7 7 7 7 7 n n k k 7 n e k k e r e k 8 e e e 8 e e  .r M v n v v n n v v k v N v v e 7 e v 7 v v v r v v M f f f v Q ",
"= 7 h h h h n h 7 7 7 7 h h h h e 7 e 4 7 7 e 7 e 7 e = e 7 e  .r M v r v 7 v v v v v v v v 7 4 4 4 4 7 7 7 4 4 4 r r 4 r r * W ",
"= 4 g 7 4 h 4 7 4 7 4 7 7 h 7 7 4 7 4 e 7 7 7 7 7 7 e = - 7 = | e v v 7 7 4 g 4 4 4 v f 8 v 4 4 4 4 4 , = 4 , 4 4 4 7 , 7 , Y W ",
"= 4 7 4 v v 4 7 7 4 4 4 h 4 7 4 = = = 4 4 7 9 4 4 7 4 7 4 = : } 4 f r 4 f 4 4 , 4 4 4 7 8 4 4 , 4 , * $ : $ * , , , , , , 2 , W ",
"* 4 4 h 4 4 4 4 4 4 = = = * = = = * * = = 4 4 4 7 4 4 7 7 - :  .7 7 7 7 4 7 4 4 , , , , , , , $ , $ $ $ : $ $ - - - - - , - $ Q ",
"_ R 4 4 9 = = = : = = = = = = W @ @ t t - : : o o : - = = = E a R 7 e 7 4 4 4 , , 4 , , 4 4 , 3 = . . = = = . = 4 4 4 4 4 = - Y ",
"( ( ( ( ( (  . . . . ..... . .( ( ( ( ( ( ( (  . ...( ( ( ( d d d ( ........^ / / / / ........................ . . .....O + ( ( ",
"r r r r r , + y ( r r r r r r r r r r r r r r r r r r r r G G G r r r n r r r ( r v G G r r r r D D D G r r r r r r r r G G r r ",
"G G G r r r r + ( r r J J J G G G G G G G G G G G G G G G G G G G G G n D n r ( r G G G D D r D D D G G G G r G G D G J G G G G ",
"G G G G G v r r ( r G G G J G G G G G G G G G G G J G G G G G G G G G J G n r ( r D G J G G v D G G G G G G G G G G G J J G G G ",
"G G G G G M r r ( r G J J G G G J J G G k m G G G G G G G G G G G G G G J G n d r D G J J G G G G m G G G G G G G G G G G G G G ",
"N m m m G G r r ..8 D D D n D D G G G n n D G G D n n n n n n n n n G G D m r d r G G G G G J G G G G m m G G G G G G G G G G G ",
"M m k m m N G r ..Z D D n n D D D j n n n n n n n n n n n n n n n m n m n n n d r G G G G G G G G G D N G m G G D G D D G D D D ",
"m k k m m m N r ..Z D D D D D D D j n n n n v n n n r n n n n n n n v n v k n s r D D D D D D D m m m m m m N S S D S S N M D m ",
"k k k k k m M r ..N Z Z j Z g D j j v h v v v v k v v v v v v r v v D S D D v s r D D m k k k k m m m m m m S M m m m N D k k m ",
"k h h h h h h 7 } 7 N N v N g D j g g 7 e g 7 v 7 7 7 7 7 7 e 7 v v v N v v 7 p v M h h h h h h h h h h h h h h h h h h h h 7 h ",
"h 4 h h h h h 7 } 4 v N N g g N g g q 4 8 g g 7 8 7 7 7 f 7 7 4 v v g N f v 4 p k h h h h h h h h h N h h h h h h v h h h h 4 h ",
"f g f g g g 3 4 { 4 8 8 8 8 8 8 8 q 2 2 4 8 2 2 4 4 4 4 4 4 4 4 8 8 8 6 8 e 4 Q r f v f h , f g h f f h f 2 f f f h 4 f f f 4 4 ",
"< f f f f f , , ! 6 3 3 3 < < , < , , 8 < , , 5 < < , , , 3 < 3 , , 8 8 , , : W 4 , , , , , , , , , , f , , f f f f f , , , , , ",
", 6 6 6 6 6 - , O 7 - - , $ # # , , - - - < , , , , , 2 5 2 - - - - - 2 - - - E , , , - - - - - , - - - - - - - - - - f f f - - ",
"- 6 6 6 5 6 = - O X - # # - # - = = # - - - - < = - = = = - = = = = - = - # # R , = = = - = = # - # # = = - - = = = 6 = 6 = = = ",
", f g h , , , ) p X X $     - - $ # - - - - - - - , , , , , 4 4 4 4 4 4 4 = ] / ~ e e e r - , , 4 $ # - # - - , - - - = = = - - ",
"..^ / ( / / s d d d ( ( ^ / / ........} } } | | | ..| | .... . ......... ...../ ( ~ ........s ..................................",
"r r r r r r r r r r r r r r r r r r r r r V r  ...1 > r w r w w r r r w r w r r i w w w w r w r r r r w w y d ( ( 0 r r r r r r ",
"G G G G J J J J J G G G G G G G F r r V V V r r ..3 b r 9 w 0 0 H H r r r w H r H H K K H H H H H H H w w 9 y ( r r G G r G G G ",
"G G G G G G G G G G G G G G G G F G G r V V r r ..w 9 H H H H H H H H H r H H H K H H K K H H H H H H H H H : ( r F r G G G J J ",
"G G G G G G G G G G G G G G G G G r G r r V V r ..w H B H H H H H H H H H H H H H H H K H K H H w w w w H H t ( r r G G G G J J ",
"G G G G G G G G G G G G V V V G G r G G F F r r ..r H H H H H H H H H K H H H H H H K H H K H H K H B w w H r ( r G G G G J G G ",
"G V G G G G G V G G V V V V F F G G G G H F V r ..r H w H H w L H H H H H H H H H H H H H H H H H w L b w 0 r ( r G G G J G G V ",
"V G G F G V V V V V V V V V V G G G G G H F V 9 u r H H w w w K H H H H H H w w K w w V B w H H H w w b w w r ( r D D D J D F A ",
"V V V G V G V V V n V V V V V V V V V V V H V + + B H w H H H b L w w H H w w V w w w w w w w w w H H w w 9 e ( 8 D D Z Z Z B B ",
"v V M V V V V v M V v v v V V V V F V V V V V u s w H H w B b b B w H w H B w w w w w w B w w w w w w w w 0 0 / e S D N r v q M ",
"v v M M V V v v v M v V V V v V V V V V V V V r s B w H H w b b w w B w w w w w w B i w 9 w w w w H w w w w 0 | 7 7 C c g N q N ",
"r n v v V v v v v v v r n v V n v v V V V V M r d w w j w w w w w w w w w w w w w w w w 9 w w w w w w A w w 0 | 4 e N r 8 r 8 8 ",
"r r r v v v v r r r r r r v r V v V r v M M m e a w w w w w w w w w w w w w A w 9 9 w 0 9 9 9 9 w w 0 w 0 9 0 } 4 N N 8 8 4 8 8 ",
"8 8 8 e r r N v 7 7 e 7 7 v 8 v g c r g r r M 7 p 9 9 w w q Z r w 9 w w 9 w A w 9 0 q 9 9 0 9 0 0 0 0 q 0 9 = { _ N 2 7 4 3 7 7 ",
"5 7 5 6 7 7 7 7 4 = = 4 4 4 4 4 7 8 4 e e 7 4 * E 9 4 3 3 4 4 4 1 9 9 1 1 1 1 1 2 1 1 1 & 1 1 5 1 1 1 ; 1 * * ! , l , , , , 5 5 ",
"2 < < < < < 2 , * * $ , , 3 3 3 , < 3 , 3 3 * , Y & * 1 1 1 2 , : 1 1 ; 1 1 ; ; ; ; ; ; & & ; ; ; ; ; ; &   Y Q , - - , $ - < < ",
"- = , = - - - i u u u       # # # $ # $ # # $ P P I % % % % # # & o & & % % % % % P P P L L % ; ; = ; ;     I ! I - - # # - - - ",
"{ } } [ | ! ! ! Q E R T R W Q Q ~ [ [ } } } ..W ..] ] ............................/ ^ ~ Q Q Q Q p { a ....^ ^ ( ^ ^ / ..~ ......",
"r r r r r r : : r G G G G G G r ..: 3 r r e r r 6 r r 7 r r 8 r r r r v r r r r r r r r r r r d d d + ; r r e e r r r r r r 8 8 ",
"V V M M V V r G G G G G G G G r  .: 3 r M v N G G G N G G G G r N G G G N G G G N n r v v v r d d + 1 w r r r r D G G G G G 8 M ",
"V V V M G V G V G G G G J G G r  .3 r G G G G G G G G G G G G G G G G G G G G G G G G G v v v d d 0 0 H G G G D D G D M D D G D ",
"G G G G V G G G G G V G G G G r ..3 r G G G v J G G v G G G G G G G G G G G v G v G G G G G v d ..r G G G G J D V G D D D G D D ",
"G G G V G V G G G V G V G G G r ( r r r G G v G G n G G G G G G G G G G G n v v v G G G G G v ( ( r A G D D D V Z Z B m M N M N ",
"G G G V G V V V G V G S M M G ( ( r r r n G v G n v v v n v v n v v n v v G v G v G G G G G 7 r / e F Z D D Z Z x V x M M M x N ",
"G G G V S V v v v V V V V M G r ( r r G v v v M G v G v v v v v n v v v v G v n v v G v G G D e ^ 0 Z Z Z c Z c x x x x x N N M ",
"D v V V v v V V v V V V V B B e s r r v v v v v v v v v v v v v v v v v v v M G D g v v g D D e Q e N D N N x x x q 8 x N x N N ",
"q v v v M v g v v v M M M M B e s r v g v v v g v e v e g r v g v v g g r g g v g r e 8 r N N 4 W 7 8 8 r x 7 8 h 8 k x 8 z N N ",
"q v r q q q q r m M M 8 M x M 9 p 7 r g r g g 7 4 7 e 7 7 M v r r r 7 8 7 8 r 7 e 8 8 7 8 N N = R 3 6 7 k 6 5 5 5 8 5 2 7 7 5 2 ",
"8 4 8 q 8 q 8 q M k k x x m 4 4 W = 8 r 7 8 r 4 r 4 4 4 4 7 4 4 4 4 7 4 7 7 3 8 5 7 5 7 7 l 2 $ Y , 2 7 2 < , 2 2 2 2 2 , 2 2 2 ",
"4 4 8 8 N 8 8 8 q 6 h x 4 2 4 4 R = 4 7 7 4 3 4 4 4 , 4 4 , , , , , , , 3 2 2 2 , 2 2 2 - , - , I - $ - - - < < l < < - - , - , ",
"* 2 3 , 2 < , 8 h h < , h , 2 , T * * , , 3 3 , , , , , * , , , , , , , , , , 2 < - - - - # # i L # - - - - < - - - - - = # # # ",
"* $ $ * & $ $ &   . . $ $ $ # Y Y U $ $ , , , , - , - # - - - , - = #   # # = = = - = # # # # u u # # $ $ $ $ $ $ $ # # # # # # ",
"{ } { [ [ ' ' ` ' ` ' ' ' _ ' ] ] ] ] ] ] [ [ [ [ [ [ ] [ [ _ _ .._ _ ..] _ ..] [ _ _ _ _ _ _ ] ] ] ] ] ] ] ] _ ] ] ] ] ] ] ' _ "
};
