/* XPM */
static char *_c102f97a2de415bdbc6ecfdafc6d189[] = {
/* columns rows colors chars-per-pixel */
"64 64 60 1 ",
"  c None",
". c gray22",
"X c #580000",
"o c #640000",
"O c #700000",
"+ c #7C0000",
"@ c #044000",
"# c #046400",
"$ c #404000",
"% c #585400",
"& c #706C00",
"* c #5C4020",
"= c #007070",
"- c #80000000",
"; c #800b0b0b",
": c #80141414",
"> c #801b1b1b",
", c #880000",
"< c #980000",
"1 c #A40000",
"2 c #BC0000",
"3 c #C80000",
"4 c #D40000",
"5 c #E00000",
"6 c #EC0000",
"7 c #FC0000",
"8 c #FC2020",
"9 c #A85400",
"0 c #A86840",
"q c #FC7C7C",
"w c #048800",
"e c #04B000",
"r c #40FC40",
"t c #848400",
"y c #9C9C00",
"u c #B4AC00",
"i c #CCC400",
"p c #E4D800",
"a c #FCF400",
"s c #FCF420",
"d c #FCA85C",
"f c #FCF440",
"g c #FCFC54",
"h c #FCF85C",
"j c #FCFC7C",
"k c #000088",
"l c #0000D4",
"z c #0000E0",
"x c #4040FC",
"c c #5C60FC",
"v c #980088",
"b c #FC9C9C",
"n c #FCB080",
"m c #FCFC9C",
"M c #FCFCB8",
"N c #9C9CFC",
"B c #B8BCFC",
"V c #D8FCD8",
"C c #FCFCD8",
"Z c gray99",
/* pixels */
"                                                                ",
"                                                                ",
"                                                                ",
"                                                                ",
"                                                                ",
"                                                                ",
"                                                                ",
"                                                                ",
"                                                                ",
"                                                                ",
"                                                                ",
"                                                                ",
"                                                                ",
"                                                                ",
"                                                                ",
"                                                                ",
"                                                                ",
"                                                                ",
"                                                                ",
"                                                                ",
"                                                                ",
"                                                                ",
"                                                                ",
"                                                                ",
"                                                                ",
"                                                                ",
"                                                                ",
"                                                                ",
"                                                                ",
"                                                                ",
"                                                                ",
"                                                                ",
"                                                                ",
"                                                                ",
"                                                                ",
"                                                                ",
"                        rrrr                                    ",
"                        rrrr                                    ",
"            iiiiffff  VVeeeeww  jjjj                            ",
"            iiiiffff  VVeeeeww  jjjj                            ",
"        ii2277jjiiiimm##ww##@@BBcczz&&ppyy                      ",
"        ii2277jjiiiimm##ww##@@BBcczz&&ppyy                      ",
"        ii22iippjj00ddff##@@**kkzzkk**nn**yy                    ",
"        ii22iippjj00ddff##@@**kkzzkk**nn**yy                    ",
"          ii&&pp,,ffffffffffffffffffffffffffyy                  ",
"          ii&&pp,,ffffffffffffffffffffffffffyy                  ",
"              pp33iiyyXXXXXXXXXXXXXXXXXXXXyyyy                  ",
"              pp33iiyyXXXXXXXXXXXXXXXXXXXXyyyy                  ",
"              pp33iiXXXX11111111111111111111yy                  ",
"              pp33iiXXXX11111111111111111111yy                  ",
"              pp33iiXX11pp11==ppyy==11pp1111yy                  ",
"              pp33iiXX11pp11==ppyy==11pp1111yy                  ",
"              pp33iiXX11yyyyyy%%%%yyyyyyXX11yy                  ",
"              pp33iiXX11yyyyyy%%%%yyyyyyXX11yy                  ",
"        ppyy  pp88iiXX11yyXX==yyyy==XXyyXX11yy    ppyy          ",
"        ppyy  pp88iiXX11yyXX==yyyy==XXyyXX11yy    ppyy          ",
"  iiyy      yyvviiiiyy1111XX11XXXXXXXX11XXyyyy----;;>>          ",
"  iiyy      yyvviiiiyy1111XX11XXXXXXXX11XXyyyy----;;>>          ",
"        iiyy  yyyyiiyyyyyyyyyyyyyyyyyyyyyyyyyy--&&%%::>>>>      ",
"        iiyy  yyyyiiyyyyyyyyyyyyyyyyyyyyyyyyyy--&&%%::>>>>      ",
"                      ;;;;;;;;;;;;;;;;;;;;;;;;;;;;;;;;::>>>>    ",
"                      ;;;;;;;;;;;;;;;;;;;;;;;;;;;;;;;;::>>>>    ",
"                    iiyyppyy                                    ",
"                    iiyyppyy                                    "
};
