/* XPM */
static char *_b30246a15384af9a38cb43d7cfe2809[] = {
/* columns rows colors chars-per-pixel */
"64 64 200 2 ",
"   c #0D0A06",
".  c #140E0B",
"X  c #1B0E0B",
"o  c #160A06",
"O  c #14110D",
"+  c #1C120D",
"@  c #1B0E10",
"#  c #120E11",
"$  c #151412",
"%  c #1C1412",
"&  c #171813",
"*  c #1C1A15",
"=  c #171C19",
"-  c #1D1C19",
";  c #1A1418",
":  c #210F0B",
">  c #23130D",
",  c #28150F",
"<  c #231513",
"1  c #2A1514",
"2  c #241A15",
"3  c #2B1A15",
"4  c #221719",
"5  c #231C1A",
"6  c #2B1C1B",
"7  c #321C17",
"8  c #321D1B",
"9  c #391F1A",
"0  c #1F211C",
"q  c #24221C",
"w  c #2C221D",
"e  c #352116",
"r  c #33221D",
"t  c #39231C",
"y  c #36281F",
"u  c #1D1C21",
"i  c #2B1E21",
"p  c #261F26",
"a  c #301F25",
"s  c #252421",
"d  c #2D2422",
"f  c #2C2922",
"g  c #2E2D2A",
"h  c #272926",
"j  c #332523",
"k  c #392523",
"l  c #342924",
"z  c #3B2A25",
"x  c #352B2A",
"c  c #3C2D2A",
"v  c #392729",
"b  c #2F302A",
"n  c #34322E",
"m  c #3C312C",
"M  c #3D3327",
"N  c #353532",
"B  c #3E3332",
"V  c #3B3935",
"C  c #3C3C38",
"Z  c #442D25",
"A  c #492D25",
"S  c #422E2A",
"D  c #4A2E2A",
"F  c #443026",
"G  c #4C3227",
"H  c #44322D",
"J  c #4B342D",
"K  c #4D392E",
"L  c #51352D",
"P  c #54392E",
"I  c #442F30",
"U  c #443432",
"Y  c #4A3632",
"T  c #453835",
"R  c #4C3A34",
"E  c #463638",
"W  c #453C3A",
"Q  c #4C3B39",
"!  c #4B3738",
"~  c #523632",
"^  c #533A34",
"/  c #5A3D35",
"(  c #523C3B",
")  c #593D38",
"_  c #50373A",
"`  c #3D403D",
"'  c #44413E",
"]  c #4B413C",
"[  c #4A443B",
"{  c #5C4237",
"}  c #54423D",
"|  c #5B433C",
" . c #5A453A",
".. c #61433C",
"X. c #3D4142",
"o. c #424241",
"O. c #4C4442",
"+. c #474841",
"@. c #4C4B45",
"#. c #464C4B",
"$. c #4C4D4A",
"%. c #544341",
"&. c #5D4543",
"*. c #514946",
"=. c #5B4A46",
"-. c #544D4C",
";. c #5F4A49",
":. c #4D534D",
">. c #53514E",
",. c #5A554F",
"<. c #545552",
"1. c #5D5653",
"2. c #555A55",
"3. c #5B5A55",
"4. c #5C5D5A",
"5. c #555E59",
"6. c #614541",
"7. c #634942",
"8. c #694E45",
"9. c #625654",
"0. c #615A55",
"q. c #625E5A",
"w. c #5D625C",
"e. c #5B6157",
"r. c #62635D",
"t. c #67695E",
"y. c #5C6463",
"u. c #5D6864",
"i. c #636561",
"p. c #696562",
"a. c #656A64",
"s. c #6B6C65",
"d. c #676D69",
"f. c #6B6E6A",
"g. c #756E6B",
"h. c #786F6B",
"j. c #6D726C",
"k. c #67726B",
"l. c #72736D",
"z. c #7A736F",
"x. c #76786D",
"c. c #6C7471",
"v. c #6E7870",
"b. c #747571",
"n. c #797572",
"m. c #757973",
"M. c #7A7B75",
"N. c #7A7D7A",
"B. c #777D79",
"V. c #81726F",
"C. c #7D827B",
"Z. c #82837E",
"A. c #838782",
"S. c #8C8582",
"D. c #868884",
"F. c #8B8A86",
"G. c #8D8B89",
"H. c #868789",
"J. c #908B86",
"K. c #918D8A",
"L. c #93948E",
"P. c #979E97",
"I. c #9A9B95",
"U. c #9C9D9A",
"Y. c #929290",
"T. c #A19D9A",
"R. c #A69C98",
"E. c #9CA09C",
"W. c #A4A29B",
"Q. c #ABA29C",
"!. c #AEACA8",
"~. c #B7B5AE",
"^. c #AFB8B9",
"/. c #B4B5B2",
"(. c #BAB5B1",
"). c #B7BDB6",
"_. c #BCBBB5",
"`. c #B7BCB9",
"'. c #BCBDBA",
"]. c #C2BBB5",
"[. c #C1BFBA",
"{. c #BFC1BD",
"}. c #C3C2BC",
"|. c #C3C0B7",
" X c #C4C5C2",
".X c #CCC6C3",
"XX c #CDCCC6",
"oX c #C7CCC8",
"OX c #CECECB",
"+X c #D3CDC5",
"@X c #D2CEC9",
"#X c #D9CFCC",
"$X c #D5C7C4",
"%X c #CED1CC",
"&X c #D4D2CC",
"*X c #DAD2CD",
"=X c #D9CFD0",
"-X c #D3D2D0",
";X c #DAD9D4",
":X c #DDD3D1",
/* pixels */
"> > 7 1 2 2 1 1 1 1 3 2 , 1 1 1 1 3 7 7 , 7 > 1 1 1 1 1 < 1 7 1 1 8 2 1 < 2 1 1 1 > 7 , 7 1 3 1 1 1 7 1 2 2 1 1 1 1 1 1 > 8 > < ",
"y } _ U E c S S S Y T y  .^ I S c H T ! a ( %.U Y v c U E U E a a E U ! U c c U I %.%.a _ U H z S S _ %.l T R U S Z M T J Q } y ",
", R S c f [ Q l c z H 3 T H l Q [ r l T 9 R c c l ] O.w x l U j 9 T j z j ] Q x c H R 8 Y j r [ [ l D Y 3 U z z l Q [ f z S R < ",
"r ^ z z +.%XQ.w v z ] e ! H O.*XQ.l z R 1 H m m %.$X!.6 l T U 8 a U T j w Q.$X%.c S U 3 R c l Q.*X] S Q t Q z v w W.XX[ M z ! r ",
"3 Y I H g z.,.X z z F 3 ^ S w g.9.X z T 6 ! H c j z.9.< w H B 6 7 U U 8 < 9.V.k c S _ 1 Y v X 9.g.w c Q 7 S Z v + ,.x.l m U Y 1 ",
"8 ! S U x . X c T Y ! j T H B + % x U U 6 E c U v X   m U U R v v E S U c o X c U c _ 6 U T c % + H U H k E T U c X . x U S _ a ",
"> E v 6 c j i j j j r w H v c 5 q l j x 2 U c d l l d l d l l 1 1 v v j l d v j j c U 2 c l l w 5 v v U i j l j j d j c a v U < ",
"* * 4 4 % ; ; < 4 * - O + 4 % 4 5 ; ; 5 $ 6 4 ; * O % * % % 5 % $ 5 * + * + O 4 < ; 5 + 4 ; ; 5 5 % 4 + $ 4 * * < $ % X 4 2 ; * ",
"b.I.U.H.H.'.'.{.{.XX_.XX`.%XOX-X-XoX%X%X-X-XOX X{.%X).E.E.G.H.q.q.H.G.E.E.).%X{.oXOX-X-X&X%XoX%X&XXXOX`.OX'.OX'.[.'.'.H.F.U.U.b.",
"W <.<.#.$.y.i.c.C.j.e.i.e.i.a.d.j.a.i.u.r.j.b.m.f.j.d.2.2.<.3.h h <.2.2.2.k.k.k.m.c.f.y.i.w.d.k.f.a.i.w.i.w.c.B.j.i.r.#.#.<.<.X.",
"o.>.i.y.f.f.d.B.j.x.z.g.p.r.g.a.l.j.l.M.b.Z.M.A.m.b.b.a.2.<.<.N N <.2.2.i.m.v.b.Z.N.Z.b.M.j.l.j.p.j.i.p.g.b.b.x.B.a.d.f.w.r.<.O.",
"X 2 4 $ u u $ q 5 q w r q ; h % q % % 4 5 d 2 5 % ; ; - * . $ . $ $ # & - & * & q 5 s 5 5 % = = $ f * 5 8 a 5 5 s $ - 0 $ - 4 @ ",
"1 j i 5 d l $ 2 c k a Z 6 + z m M y r 6 S z k j z w + l l 5 j < 4 w 2 j x + w l j j z F 6 r y M m x + 6 S a k m 5 % l d 4 d v 1 ",
"9 E x c c U % 2 R ~ ~ / t > R  .R Z S t &.Y J S Q r > m z v T , < T l c H % r Q H J Y 6.k F Z R } R > t ) ~ ~ Q < + H c m x U a ",
"r H l l z H > w M J K K t < J J ^ Z Z 9 7.K ~ K R 3 > U t v H 1 1 S v t U > 3 R Y ~ K 7.7 A Z ^ G K , y K J H M w > F z l j H 9 ",
"w R z l z F + 3 H R P K z > ^ ) P F G t 8.~ K K R r , H z z j 8 7 j z z H 1 7 ^ K J ~ 8.t G A P { P > z K ^ K H 3 > F z l z T r ",
"e m j k Z H + 2 U D A ~ k > L ) ~ A A t ) Y ~ ~ Y 9 , c k j l 2 4 v k j S > t K ^ ~ K { t A A L ) K > j ~ G A J 5 + H Z y k H r ",
"y H k v z F + w S D G ~ l + Y ) ^ S A t | D D D R 9 , Z k v c 2 5 c v j S , 9 R S D D  .e Z Z ^ ) L % j L G A F q % M Z k j H w ",
"w H l k M M & w Y J P ~ y 3 K | ^ S F 7 | Z S A K 7 > M r l m 4 4 c x j c : 7 K S A A | e F F ^ { K 2 l ^ P G Y s & m M k k U d ",
"e m z j y M + q Y D ~ Y w * F { K S G r =.Z F K ! 3 > F j z m 5 2 B c l S > 3 R K F F | e F F K { G 4 w K P F J w + m z t j U 6 ",
"7 S z t y H + w ^ Y / / l 1 K ..J A A t  .S A K ^ e , H y z M 3 2 H z z H , e ^ K A Z { r Z A G { K 1 j ^ / L ~ 6 % F z t k I 7 ",
"8 I Z t Z F + 2 ~ G L ~ e , D ) ^ F Z e { F A S ~ 7 , S z v c < < z z k H > 7 R S A G } 9 Z G ~ { G , j P L G K 3 + H z t z U 8 ",
"r H v v M M > e Q ! ^ ^ j 1 R { ^ S S r | J U Z Q y < J z M z 2 3 M z z U 1 e R Z Y U  .9 S F ~ ) K 3 l ^ P ~ ! w % H c t z E a ",
"l U z x M M & w R Q R R w < R Q T z J j *.R Q T T w < m x c x 5 5 l x x m > j T T ] U =.y T c Y Q R % j ! R R R j $ N m z v U j ",
"b.I.T.J.P.`.).}.}.@X(.@X_.XX*X+X*XXX@X*X&X*X@X}._.&X'.I.W.L.A.2.2.Z.L.E.I.{.}.|.}.@X&X*X*X+X+X&X+X*XXX_.}.~.+X|.}.`.`.I.J.T.I.b.",
"` :.>.+.e.w.e.v.b.M.r.r.r.r.r.l.s.p.r.r.4.l.b.Z.l.j.j.2.2.2.<.n n <.2.2.,.k.s.C.Z.b.l.r.w.r.p.s.l.r.q.r.t.r.C.x.b.5.u.5.+.>.>.` ",
"' 2.r.r.k.k.a.M.M.f.b.b.p.r.l.i.x.l.l.l.B.M.N.N.m.k.b.a.:.2.<.b b :.2.:.t.v.s.C.B.C.B.M.b.l.f.b.r.l.p.p.x.x.s.M.B.a.k.d.e.t.2.o.",
"O $ + 5 & 0 & q 5 5 s s 5 2 s - q O - 0 s - C ^.A.i./.N u $ = . O 0 O 0 N /.t.C./.C - s - - $ q - q 5 5 d s 2 - q = u = 2 + ; # ",
"* d > < - * 4 < 6 2 5 4 2 : 4 ; * 4 5 s 5 3.g n.C o.g.o.3.5 5 * * 5 5 9.` l.' C M.g 3.4 s 5 5 * % 2 < 2 < 4 5 3 4 4 ; 4 * > w * ",
"a %.! T T x U H c E E 6 7.( U c x T T * J.>.n i.-.@.>.V p.-.5 x x 5 -.t.C >.@.:.p.n <.F.4 V T x m H ( ;.i T T Z U I n C H ^ %.j ",
"6 Y Z z x *.! r S v Q 6 ! Z l ] O.q m (.f.g * - = - - - x S.@.d i *.S.n - 0 - * - % b s.(.m q } ] k Z ! 6 Q z Z r E *.x z Z E a ",
"6 _ F F ' #XR.k k v W r _ G %.#XQ.w n ;XB * * & & ; $ 5 * T S.d d S.V * 5 O ; & & * = n ;Xm w Q.#X%.S ^ w R y z k R.=X] F S ( 1 ",
"i E S Z d n.1.@ j F S a Y c j h.3.O m ].3.w w 8 1 z k z < ,.;Xw w ;X,.2 z j z 3 8 8 6 3.].m O 4.g.j z ! i m H t + 9.b.j S D E i ",
"i _ S D x ; @ B J Y ! i U c B X % g T _.+.f U k v v S c w >.~.s d ~.>.w S S z j k E l O.[.T g % + c c T d E T H c . ; x H S ! i ",
"4 E S a v p p d j y l 6 c U j d w x l S.r.x =.Q j Y _ Y x q.F.d d S.q.c Y Q U l ( &.c q.S.l g 5 d j U c i l r y l s p j v Z T ; ",
"@ i @ @ ; u # ; X 2 ; < ; O ; % * $ % >.F.[ l H 6 c S j *.F.$.    @.S.*.x c x 6 c c ] J.-.% O * % % O % 4 % 2 + $ $ u % X X d # ",
"B.T.R.S.H.^.`.oX].*X~.OX`.-XOX&X&X&X&X- @.~.` f a.i.v E !.$.- 2.2.5 :.!.W x i.a.l ' ~.@.- @X%X&X&XXX&X'.OX/.*X|.oX`.^.D.J.T.U.B.",
"X.$.<.-.#.u.u.c.M.g.p.e.i.i.i.b.d.p.4.i.0 @.L.:.;X;X-.L.<.& <.b g <.= >.G.-.;X;X$.L.@.= i.r.a.s.l.r.i.u.w.a.s.M.k.y.u.#.*.,.$.X.",
"X.3.q.3.c.c.u.C.x.x.l.m.e.w.l.r.M.s.b.l.l.0 V b Z.F.g V * 4.<.b N <.4.& V n F.D.b V 0 l.g.n.s.M.r.x.e.w.m.x.x.x.B.u.c.c.3.q.4.X.",
". * * * & = & 0 2 0 w 5 q 0 q 5 5 % % q q w + q r.r.* - -   $ % ; . . % - * r.e.q & w q q % < * * q 0 q - s 4 5 0 = = & + * - # ",
"4 v 8 6 i j $ 4 z z y z w + v c M j j 3 H l l w 2 + + x 2 w j ; % l 6 5 l . + 2 w l l m 3 j j c z l + 6 z z z z 5 O x q 6 6 l 4 ",
"a S k S v U * 6 Y L ^ ^ v 2 J } R A S t | J T J J r 1 m z c I 1 3 c c c H 1 y J J R H  .t F F ^ { J 2 k ^ ~ K R 2 < F v z Z I 9 ",
"j S S k v S < 6 K A G K k 1 A ~ ~ F F t 7.L R K K e > M z z Z 1 2 z c k F > r K G [ R ..t F A ^ L F 1 k K D G Y 6 > S z k Z U k ",
"k J k k Z I @ 6 K L P ^ k < J { ^ A F t 7.K ^ H [ e > H z z c 6 6 c z z H > r ! G R K 8.r F A ^ ) K 1 k / P K K 6 < F v t k E k ",
"r H k v S U % 2 F F G K y < J  .K F F e 7.G R K J r + x r r l 3 2 l r r M + 8 J K T J =.e F F K { G < j L G G F 6 % H M z k S 9 ",
"8 F j k c m ; 6 T Z G G l 2 R { R F Z 9 ..A F H R 9 + M l l l 4 2 l l l m > 8 ~ H F A | r F F K { K 3 l G A F H 6 $ F Z j j I 8 ",
"t U j j Z H < d H G P ~ l < J | R G Z 9 ..A A J ~ 7 + c x z c 6 2 c v z M X 7 ~ H F G | t Z F ~  .K < j ~ P G H j % H z t k U a ",
"8 S j l c S @ 6 K K G K j < H { K F Z 9 ..D S J Y 9 > M z z z 2 6 x z l M , 9 L K H A { e Z G K { G > l ~ L J Y w X F z j v S 8 ",
"8 c l r z U : 6 R G ) ~ t , ^ { R Z G 7 | S S Y Y 9 3 M y H c 2 2 M H l H , r J J F Z &.e F Z L ^ ^ , y ^ ) D ! 6 + H z y y S 9 ",
"9 H l l v U X 3 ] F Y / t > F ^ ^ A Z t { J Z D ( 3 : T y j x 1 , l y r H + 3 ( H Z J ) t A F ^ { A > e ^ ~ S ( 3 : H z j l F r ",
"7 J c j c Y > 3 J K ) ^ r 3 Y &.^ S G t 6.D J S R r > H v c U 7 3 T c x H , r R Z H D 6.9 J Z ^ { K 3 r ^ ) ! R 3 > Y c j c U 7 ",
"v T x x I c $ l ] J ^ F z > J ( T z H y &._ ( E U l * x B j k < 1 j l m m - l U R _ _ &.k U z U } H > z H ( Y Q l + c H x x E k ",
"z.I.P.F.I.[.). X|.}.].+X(.&X&XXX&X%X+X&X*X*X.X.X{.%X{.P.P.K.F.3.1.G.Y.U.P.).%X{. X.X:X#X&X&X&X%XXX+X&X_.@X].OX_. X_.[.I.F.I.T.z.",
"T 2.:.:.2.u.w.v.Z.l.e.t.e.e.a.j.j.a.e.r.4.l.x.C.k.v.k.2.2.:.e.f g 2.:.2.5.k.c.k.C.m.g.q.r.w.a.j.j.a.e.e.t.e.j.C.v.w.r.2.:.:.2.C ",
"[ 3.4.w.a.f.p.m.j.x.l.l.a.t.j.r.l.s.x.b.M.C.C.M.j.x.x.r.2.>.2.N N 2.<.<.i.b.b.l.N.C.B.B.x.b.s.x.t.s.t.t.x.l.l.j.m.a.f.a.w.e.3.' ",
". * * * - - * s q q w q % 5 s - q % & q - q 5 5 % - ; 5 0 O O   . . $ 5 5 % * * 5 5 s - q % & - - q - - w q i 5 q = - - * * * o ",
"> 1 6 < 2 4 2 4 , > 1 < < 3 4 4 2 2 6 w % 6 % 2 4 1 2 < 1 2 6 2 4 6 < 2 < 4 1 2 5 % w + w 3 1 2 4 < 2 < 2 1 2 4 4 2 4 4 > 6 < < ",
"j %.( E E x B S H R R y } [ H m c H U ] r ] %.U U v S T E I Y a a T H R S S c U m } } w Q T H M M F ( %.k ! ! U m m c E T ( } k ",
"1 E S c j ] ] v m l H 3 Y U x Q Q w l T 8 ! S c v } W w c v I j 9 U v l w [ } l z F J r H y y [ [ l H T 6 U v M v ] ] f c H ! > ",
"8 Q c v *.@XQ.a z M [ r ! H O.=X!.l x ! 6 U S c O.+XQ.w j T I 8 9 F T y w Q.+X} S S T 1 R x f Q.#X[ H Q r ! c v r Q.@X%.c z Q r ",
"3 T I S x z.1.@ v c F 6 Q Z d h.9.@ c E 8 ! I I j n.9.% d U I 9 9 S S d + 0.z.y S S _ 7 R v X 1.h.r c ! 6 B c v : 1.n.l H U Y 6 ",
"6 R I U c O @ v T T W j U U U @ * x E U i _ c U x X . c E B E v v E B T x o o x E c ! a U T x * + H I U l W E U c X . c U c Y 6 ",
"% U c 6 n h p j w l d 6 Y v x 5 i j j c 4 B c d j c d j l j j 1 5 j x j d j x l j x I 2 x d v 6 5 c v Y i d j j j s h n 6 c E % ",
"< % < 4 O % % @ 2 2 4 @ @ 4 @ 4 2 @ ; * @ 6 @ % ; @ X 4 @ 4 ; % ; 4 4 @ 4 @ @ % % ; i $ 4 ; @ 4 4 @ 1 X X 4 4 4 ; @ % . < < % 4 "
};
