/* XPM */
static char *_5bed393a2c84a43a2c740a74996f6c0[] = {
/* columns rows colors chars-per-pixel */
"40 80 233 2 ",
"   c #070A0B",
".  c #19180B",
"X  c #070B14",
"o  c #020C14",
"O  c #010D1A",
"+  c #0B1216",
"@  c #04121D",
"#  c #0B141B",
"$  c #0A141C",
"%  c #13191D",
"&  c #290813",
"*  c #28171B",
"=  c #232312",
"-  c #302D1C",
";  c #051625",
":  c #0A1624",
">  c #051827",
",  c #0C1A26",
"<  c #061728",
"1  c #0D1C29",
"2  c #131C24",
"3  c #1A1D24",
"4  c #121E2B",
"5  c #221C28",
"6  c #192124",
"7  c #14212E",
"8  c #1C242D",
"9  c #152533",
"0  c #1A2633",
"q  c #162836",
"w  c #1A2935",
"e  c #172838",
"r  c #1B2B3A",
"t  c #1F313F",
"y  c #222424",
"u  c #2C2924",
"i  c #262629",
"p  c #2C2D2B",
"a  c #322C25",
"s  c #302D29",
"d  c #393727",
"f  c #32312C",
"g  c #232C34",
"h  c #2A2B32",
"j  c #212E3B",
"k  c #2E3134",
"l  c #23313D",
"z  c #2C343B",
"x  c #333434",
"c  c #343A3D",
"v  c #393A39",
"b  c #6B2317",
"n  c #5C2F39",
"m  c #463C38",
"M  c #484436",
"N  c #544B3D",
"B  c #1F3040",
"V  c #233443",
"C  c #293642",
"Z  c #263846",
"A  c #2C3945",
"S  c #2A3748",
"D  c #273848",
"F  c #2B3B4B",
"G  c #333C44",
"H  c #313E4A",
"J  c #733B44",
"K  c #2E404F",
"L  c #364147",
"P  c #3C4345",
"I  c #34414D",
"U  c #3A434B",
"Y  c #2F4150",
"T  c #324453",
"R  c #3A4552",
"E  c #364857",
"W  c #3D4A54",
"Q  c #364958",
"!  c #3B4C5C",
"~  c #3E505E",
"^  c #3E4F61",
"/  c #474749",
"(  c #444A4C",
")  c #554D45",
"_  c #53524C",
"`  c #5A564B",
"'  c #424D55",
"]  c #494E53",
"[  c #474F59",
"{  c #544951",
"}  c #445056",
"|  c #44515C",
" . c #4A5458",
".. c #4B545B",
"X. c #545452",
"o. c #5B5552",
"O. c #5B5A56",
"+. c #56595A",
"@. c #744047",
"#. c #65584A",
"$. c #635D58",
"%. c #5F605D",
"&. c #69665C",
"*. c #776A59",
"=. c #78725C",
"-. c #465562",
";. c #4E5964",
":. c #4B5C6B",
">. c #535B63",
",. c #595E64",
"<. c #545E6A",
"1. c #705E66",
"2. c #4F616F",
"3. c #5B6268",
"4. c #5B626A",
"5. c #4F6271",
"6. c #526473",
"7. c #5A6771",
"8. c #5D6974",
"9. c #5D6D7C",
"0. c #676869",
"q. c #736E66",
"w. c #6C706F",
"e. c #7C7264",
"r. c #757368",
"t. c #7A746A",
"y. c #7D7B6D",
"u. c #656E75",
"i. c #6A6F74",
"p. c #616D79",
"a. c #687279",
"s. c #6D747B",
"d. c #777876",
"f. c #72777C",
"g. c #7C7D7B",
"h. c #83363E",
"j. c #863B40",
"k. c #99585E",
"l. c #A85358",
"z. c #89735B",
"x. c #94705A",
"c. c #867A68",
"v. c #94786B",
"b. c #837C73",
"n. c #887C70",
"m. c #AC6E6C",
"M. c #89836E",
"N. c #998369",
"B. c #898478",
"V. c #938D7D",
"C. c #97957E",
"Z. c #AC8D75",
"A. c #A8987C",
"S. c #687784",
"D. c #727B84",
"F. c #797F85",
"G. c #7D8283",
"H. c #74808A",
"J. c #7B858C",
"K. c #7D8A96",
"L. c #8B8A85",
"P. c #878888",
"I. c #928D83",
"U. c #938E8C",
"Y. c #8F9289",
"T. c #999589",
"R. c #838B93",
"E. c #8B9298",
"W. c #959594",
"Q. c #979A9B",
"!. c #A69A85",
"~. c #B89987",
"^. c #A39E93",
"/. c #9EA39F",
"(. c #ACA18B",
"). c #B4A487",
"_. c #ABA493",
"`. c #A7A59B",
"'. c #B7AA96",
"]. c #B3AD9B",
"[. c #BAB29D",
"{. c #8A98A5",
"}. c #939BA3",
"|. c #959FAA",
" X c #9BA5AA",
".X c #99A7B4",
"XX c #A3A4A4",
"oX c #A7AAAB",
"OX c #B3ACA2",
"+X c #B8B3A7",
"@X c #A5ACB2",
"#X c #AAB3BA",
"$X c #B4B5B5",
"%X c #B6BABD",
"&X c #BCBCBD",
"*X c #E08185",
"=X c #CBA192",
"-X c #C4B29A",
";X c #C7BAA4",
":X c #C4BCAA",
">X c #DCB4A8",
",X c #CCC4AE",
"<X c #C8C5B9",
"1X c #D5CBB6",
"2X c #D3CDBC",
"3X c #AFB8C1",
"4X c #B9BDC2",
"5X c #BBC1C6",
"6X c #BBC3C9",
"7X c #C9C8C7",
"8X c #D8D2C6",
"9X c #DCD5C5",
"0X c #C7CDD3",
"qX c #CFCED3",
"wX c #D3D4D3",
"eX c #D9DADA",
"rX c #FFD4CC",
"tX c #E2DED4",
"yX c #F3E8CE",
"uX c #E4E3DC",
"iX c #EAE6DB",
"pX c #FAE7D8",
"aX c #D7DDE3",
"sX c #DDE2E7",
"dX c #E7E7E5",
"fX c #F4EBE5",
"gX c #F5F4EB",
"hX c #FDF9EA",
"jX c #EAEDF1",
"kX c #EDF2F6",
"lX c #F4F5F3",
"zX c #FDFCF3",
"xX c None",
/* pixels */
"xXxXxXxXxXxXxXxXxXxXzXxXxXxXxXxXzXxXzXxXxXxXxXxXzXxXxXxXxXxXxXxXxXxXxXxXxXxXxXxX",
"xXxXxXxXxXxXxXxXzXxXxXxXgXgXdXiXuXuXuXtXeXuXiXiXgXgXgXhXzXzXxXxXxXxXxXxXxXxXxXxX",
"xXxXxXxXxXzXxXxXiXeXiXiX8X]._.]._.!.V.M.z.c.=.=.M.M.M.C.].2X<XtXzXxXzXxXxXxXxXxX",
"xXxXxXxXxXxXxXxX+X_ t.OX`.B.Y.`.Y.&.N M d d d - = . . = = d = V.xXxXxXxXxXxXxXxX",
"xXxXxXxXxXxXxXxXXXG ' u.2.}  . .U h % $ X     X + + + 2 6 %   f.xXzXxXxXxXxXxXxX",
"xXxXxXxXxXxXxXkXp.F T T 2.W | 7.C A I 8 z ' H H Z g r 7 9 7 , >.jXxXxXxXxXxXxXxX",
"xXxXxXxXxXxXxX#XF T K T ;.4.J.a.U U H 3 C ..;.G L z U L l , q o  XxXxXxXxXxXxXxX",
"xXxXxXxXxXxXsX<.F T T K C I | I H j 3 2 2 : : $ % : , 8 9 1 7 7 I sXxXxXxXxXxXxX",
"xXxXxXxXxXxX@XH ! 2.S.5.-.9.9.9.:.F B 9 1 < : : , , , , 9 j j w 7 H.xXxXxXxXxXxX",
"xXxXxXxXxXjX-.T 5.K.{.S.S.K..X|.S.^ S 9 : < < < 4 7 9 9 r H I j 9 A sXxXxXxXxXxX",
"xXxXxXxXxXaXR F :.S.S.^ ! 5.S.S.-.V e < < < < < > 1 , , 4 w A j 9 0 E.xXxXxXxXxX",
"xXxXxXxXxX0XH F -.9.^ Y F ! :.:.H B h 5 h 5 $ < > ; ; > : 0 V j w 1 D.xXxXxXxXxX",
"xXxXxXxXxX7XF F ^ 6.^ F F -.9.^ F 5 & n n & X @ O j 9 ; : 9 j w 9 1 f.xXxXxXxXxX",
"xXxXxXxXxX6XF F ^ 6.^ Y F ^ K.K.! 1.@.m.h.J { j ;.F 1 ; , 7 j r q 1 S.xXxXxXxXxX",
"xXxXxXxXxX6XF D ^ 5.^ F F T :..X3X7Xm.*Xl.k.L.s.7.@ ; > , 4 r w 9 4 s.xXxXxXxXxX",
"xXxXxXxXxX6XF F ! :.^ F F T -.S.|.{ k.l.j.J o.J.8 @ ; ; , 7 r w w 1 f.xXxXxXxXxX",
"xXxXxXxXxX6XF F ! 5.E K K I 2.u.4.2 m v.1.* x ' 8 # , > # 6 r w w 4 s.xXxXxXxXxX",
"xXxXxXxXxX6XA F E 9.D.w.L c  . Xu.y w.{ { {   P ' o + # k z g w 9 4 S.xXxXxXxXxX",
"xXxXxXxXxX6XF F Q 5.4.%._ O.y.R.4XjXU.f m &.!.t.M f f s p i g w r 1 S.xXxXxXxXxX",
"xXxXxXxXxX6XA S ! } d.2X:X2XdXzXxXxXgXB.#.!.(.^.+X<X].T.y.u 8 w 9 1 a.xXxXxXxXxX",
"xXxXxXxXxX6XF F !  .y.,X[.,X7X7XxXxXhX,X).A.!.(.^.b._.T.c.s 8 r r 1 D.xXxXxXxXxX",
"xXxXxXxXxX6XG F Q ;.y.,X[.=.Y.qXg.eXhX-XA.A.!.M ` ].#.*.n.p i e r 1 s.xXxXxXxXxX",
"xXxXxXxXxX6XS D Q  .y.:XT.W.Q.zXd.Q.fX,XA.(._ o.b.`.o.x b.u 8 j e 1 s.xXxXxXxXxX",
"xXxXxXxXxX6XF S Q  .y.,XX.] `.zXxXB._.1X(.T.L.p ^.U.+ h b.u 0 r r 1 s.xXxXxXxXxX",
"xXxXxXxXxX6XA F Q  .y.:X0.z oXxXwX% _.2X).#.$XW y.tXc 6 t.s 0 r e 1 s.xXxXxXxXxX",
"xXxXxXxXxX5XF F T } M.+X+.i.G.lX0Xp OX2X_.N E.P Y.M.+ v t.s i r e 1 s.xXxXxXxXxX",
"xXxXxXxXxX5XS Z Q } y.OXw.7XG sXeXG.fX:X_.) a.c V.'.N z.e.s 8 r r 1 S.xXxXxXxXxX",
"xXxXxXxXxX5XS F Q } y.+X^.W.X.Q.3.L.zX;X(.N +.z V.;XC.M.z.a 8 r e 1 f.xXxXxXxXxX",
"xXxXxXxXxX6XF Z Q } t.;X!.U.}.G 3.fXpX=X~.N ] z g.b.e.c.e.s 8 r r 1 a.xXxXxXxXxX",
"xXxXxXxXxX6XA D Q  .t.+X_.OXXX..P.xX>Xh.m.@.] 0 z i   ` e.a i r e 1 s.xXxXxXxXxX",
"xXxXxXxXxX6XA D Q ' t.'.[.V.oXS.L iXm.b x.#.] 2 %.O.6 x t.u 8 r e 1 a.xXxXxXxXxX",
"xXxXxXxXxX6XC Z T } r.[.'.I.0.Q.A U.rXZ.=X#.] g w._ a.z $.u 0 r e 1 u.xXxXxXxXxX",
"xXxXxXxXxX6Xl K Q ' e.[.n.q.U.6XU +.pX>X-X) +.g d.X.R.0 / f 8 r e 4 s.xXxXxXxXxX",
"xXxXxXxXxX6XZ V Q W r.+X) 0.iXU.D.# T.1X'.N 4.g d.X.}.3 x f 0 r e 4 a.xXxXxXxXxX",
"xXxXxXxXxX6XC Z E ' w.+X+X0.9X`.6X+ !.1X'.N P.k b.O.}.8 x f 8 r e 4 s.xXxXxXxXxX",
"xXxXxXxXxX5XC Z E W q.T.<Xd.9XiXg.i C.,XA.M  Xc b.O.R.g v u 8 r e 1 a.xXxXxXxXxX",
"xXxXxXxXxX5XC Z E W q.I.6Xq.9X9Xw.d.B.,XA.#.$Xv P.O.u.z o.u 0 e e 4 a.xXxXxXxXxX",
"xXxXxXxXxX5XV Z T W 0.].+X&.9X1XG.Y.M.-XN.M.I.y B.O.c h $.y 8 r r 1 a.xXxXxXxXxX",
"xXxXxXxXxX5XA Z T W q._.&.Y.8XiX_ _ ).-XN.v.x / P.$.  f o.u 8 r e 1 a.xXxXxXxXxX",
"xXxXxXxXxX5XA Z T U q.].B.) y.<X_ T.pX).N.z.e.M m M * ) ` u 8 e e 1 a.xXxXxXxXxX",
"xXxXxXxXxX6XC V T W O.T.].!.c.B.8XhXyXA.Z.z.z.=.N N *.#.) * 8 e e 1 s.xXxXxXxXxX",
"xXxXxXxXxX6XC Z T | 0.O.$._.2XhXhXfXyXA.N.x.#.N.;X!.&.a u h r e e 1 a.xXxXxXxXxX",
"xXxXxXxXxX6XC Z T ! } G 0./ U.7XgXhXyXA.N.z.z.z.B.o.y h % 3 r e e 1 s.xXxXxXxXxX",
"xXxXxXxXxX5XC V Y ! K V g  .0.w././.2X'.N.*.N N p v 8 @ : 1 0 e e 1 s.xXxXxXxXxX",
"xXxXxXxXxX5XZ V Y ! Y V V C L D.L  .d._ d v p 8 G O : ; : 1 9 w e 1 s.xXxXxXxXxX",
"xXxXxXxXxX5XC Z K ~ Y V V K Y C l U 6 o   % 9 @ O < ; ; ; 1 e e r 1 a.xXxXxXxXxX",
"xXxXxXxXxX6XC V K ! K V V Z K T l 1 @ 1 > @ @ > < ; ; ; ; 1 e e e 1 a.xXxXxXxXxX",
"xXxXxXxXxX5XV V Y ! K l t Z L K t 9 > @ > > > > ; ; : ; ; 1 9 e e 1 s.xXxXxXxXxX",
"xXxXxXxXxX6XZ V Y Q F C A A } U l 7 7 7 , > > , , , ; ; < 1 0 0 e 1 u.xXxXxXxXxX",
"xXxXxXxXxX5XC V Y ! t {.6Xs.aX#X7.u.J.#X7.D.D.<.S.p.W U S.O e e e 1 a.xXxXxXxXxX",
"xXxXxXxXxX5XC V Y Q C 7.#XH.0X4Xu. XR R.S.J.E.#XJ.R.#X;.D.O w e e 1 s.xXlXxXxXxX",
"xXxXxXxXxX5XC V K E Z 4.@XD.sXs.>.@XU #XD.H. XzXJ.J.0X>.F.o 0 e e 4 s.xXxXxXxXxX",
"xXxXxXxXxX5XA Z F E j {.6XH.E.G.u.D.D.4X8.D.J.R. XL D.[ 3XA 4 r e 1 a.xXxXxXxXxX",
"xXxXxXxXxX6XC V F T F H A G G G 8 2 4 : $ $ o o # # # $ 8 4 7 9 e 1 a.xXxXxXxXxX",
"xXxXxXxXxX6Xl C Y T H S ] ( G <.4.3 + g z h 0.k P 8 ] 3 z 8 4 0 e 1 a.xXxXxXxXxX",
"xXxXxXxXxX5XC V K T S R ,.( ' J.4Xz 2 ..>...w.( J.G J.z c , 9 0 0 1 s.xXxXxXxXxX",
"xXxXxXxXxX5XS V F T D T W ' W T A g $ : : 3 $ , w 1 9 9 r 2 4 9 e , s.xXxXxXxXxX",
"xXxXxXxXxX6XC V F T F V l Z S S  .9 C h j $ R R O ; ; ; ; < 4 9 w , a.xXxXxXxXxX",
"xXxXxXxXxX5XC V Y Y F B j V S S -.2 7.;.[ 0 [ F ; > > ; : < 7 9 e 1 s.xXxXxXxXxX",
"xXxXxXxXxX6XA V F T K V V V Z V 7 1 8 4 2 4 $ O ; ; < ; : < 4 9 9 1 a.xXxXxXxXxX",
"xXzXxXxXxX6XC V F T F V r V D V r 1 ; ; ; ; > > ; > ; > < < 4 7 w , a.xXxXxXxXxX",
"xXxXxXxXxX6Xl V F H D B j V D B e 1 < > ; > ; > ; > ; > ; < 7 9 9 1 s.xXxXxXxXxX",
"xXxXxXxXxX6XD V F T F B j B V B e < ; ; ; > ; ; ; ; > > ; : 4 7 9 1 a.xXxXxXxXxX",
"xXxXxXxXxX4XV V F T F B B r D j e < > > ; > ; > ; > > ; ; 1 7 9 w , a.xXxXxXxXxX",
"xXxXxXxXxX5XC B F Y F t t t V r 9 < > > ; > > ; > > < ; ; 1 7 9 e 1 a.xXxXxXxXxX",
"xXxXxXxXxX5XZ B F T D t r r V r w 1 ; < > > ; ; ; ; ; ; ; < 1 9 e 1 s.xXxXxXxXxX",
"xXxXxXxXxX5XC V F F S V r r V r 9 1 ; > > ; ; ; ; ; ; ; < 1 9 9 e 1 a.xXxXxXxXxX",
"xXxXxXxXxX6Xl V F F Z r l B V r 9 < < ; > ; > ; ; ; ; > < 1 1 9 e < s.xXlXxXxXxX",
"xXxXxXxXxX6XC V S F F r r B B 0 9 < ; ; ; > > > ; < ; : < 1 9 9 9 , s.xXxXxXxXxX",
"xXxXxXxXxX6XC B S F D B r r j e 9 1 @ @ ; ; > > ; ; < < < 4 7 9 9 : a.xXxXxXxXxX",
"xXxXxXxXxX6XC V D S S B r B r r 1 A ( 3 # w $ @ < < < < < 1 7 7 9 : a.xXxXxXxXxX",
"xXxXxXxXxX5Xl t D S B r e r r r : ;.Q.P 2 4.9., ; ; < < : < 4 4 7 $ a.xXxXxXxXxX",
"xXxXxXxXxX0Xr 0 V V V r 0 r r e 1 9 z 2 $ 9 [ 7 ; < 1 : < : 1 < 1 O D.xXxXxXxXxX",
"xXxXxXxXxXsXH C 8 4 , , : : $ O O O o O O O o O O O O O O : O : 2 g 4XxXxXxXxXxX",
"xXxXxXxXxXxXeXoXi.,.>.,.,.<.,.,.;.;.....[ [ ..[ [  ...H 3 g G / 0.3XxXxXxXxXxXxX",
"xXxXxXxXxXxXxXeX7X&X4X%X%X4X4X&X$X@X@X|.|.|.W.R.F.f.0.+.] 1.f.f.$XxXxXxXxXxXxXxX",
"xXxXxXxXxXxXxXxXeX&X%X%X$XoXXX}.W.U.R.P.P.g.d.i.0.+./ v v +.f.4XxXxXxXxXxXxXxXxX",
"xXxXxXxXxXxXxXxXzXdXdXdXdXuXeXqXqX&X$X$XoX`.Q.W.W.R.b.P.Q.U.&XxXxXxXxXxXxXxXxXxX",
"xXxXxXzXxXxXxXxXxXxXxXxXxXxXxXlXlXjXuXeXeXwXwXqXqX&X$XqXlXxXxXxXxXxXxXxXxXxXxXxX",
"xXxXxXxXxXxXxXxXxXxXxXxXxXxXxXxXxXxXxXxXxXxXxXxXxXxXxXxXxXxXxXxXxXxXxXxXxXxXxXxX"
};
