/* XPM */
static char *_03c417256734b0aec9195560d50c03b[] = {
/* columns rows colors chars-per-pixel */
"32 32 144 2 ",
"   c #100F0E",
".  c #131212",
"X  c #111415",
"o  c #151515",
"O  c #1B1316",
"+  c #1C1316",
"@  c #1C1417",
"#  c #1B1319",
"$  c #1C1319",
"%  c #1C1718",
"&  c #1F171C",
"*  c #181918",
"=  c #181819",
"-  c #1B1B1B",
";  c #1E1818",
":  c #1F181B",
">  c #1B1C1B",
",  c #1E1F1E",
"<  c #211B15",
"1  c #251F17",
"2  c #211719",
"3  c #22171C",
"4  c #21181B",
"5  c #22181B",
"6  c #251C1C",
"7  c #261C1C",
"8  c #251C1E",
"9  c #281A1D",
"0  c #2A1E1D",
"q  c #2C1F1F",
"w  c #2F231F",
"e  c #231C20",
"r  c #271D21",
"t  c #2B1F22",
"y  c #232422",
"u  c #262826",
"i  c #2A2C2A",
"p  c #302120",
"a  c #312021",
"s  c #332321",
"d  c #322323",
"f  c #342323",
"g  c #332523",
"h  c #352723",
"j  c #332324",
"k  c #352425",
"l  c #372624",
"z  c #382723",
"x  c #3B2727",
"c  c #3C2626",
"v  c #352926",
"b  c #3B2924",
"n  c #3B2925",
"m  c #382A25",
"M  c #3C2A24",
"N  c #3C2B25",
"B  c #3E2B24",
"V  c #3E2A27",
"C  c #3E2E25",
"Z  c #2F312E",
"A  c #31312F",
"S  c #313231",
"D  c #383A38",
"F  c #3E3F3C",
"G  c #402B27",
"H  c #422A27",
"J  c #402E25",
"K  c #462E26",
"L  c #472B28",
"P  c #472E28",
"I  c #442F2A",
"U  c #4A2C29",
"Y  c #433129",
"T  c #47302A",
"R  c #47322D",
"E  c #4A3129",
"W  c #493229",
"Q  c #4B3229",
"!  c #4B332E",
"~  c #4F332E",
"^  c #4F362E",
"/  c #51332D",
"(  c #50372D",
")  c #50352E",
"_  c #56392B",
"`  c #52382E",
"'  c #55392E",
"]  c #583B2D",
"[  c #593830",
"{  c #593A30",
"}  c #5B3E31",
"|  c #5C3E32",
" . c #5B3A35",
".. c #3E403B",
"X. c #41413D",
"o. c #42433E",
"O. c #46453D",
"+. c #5F4032",
"@. c #634332",
"#. c #614135",
"$. c #674336",
"%. c #6C4638",
"&. c #6F493C",
"*. c #4B4D45",
"=. c #4F4E46",
"-. c #55544B",
";. c #56554E",
":. c #585750",
">. c #575852",
",. c #585850",
"<. c #5D5B53",
"1. c #5C5C52",
"2. c #616058",
"3. c #63645B",
"4. c #64645A",
"5. c #65655C",
"6. c #676861",
"7. c #696D64",
"8. c #6B7168",
"9. c #6F7268",
"0. c #6D7468",
"q. c #71756C",
"w. c #6F7675",
"e. c #747A74",
"r. c #77827B",
"t. c #7F867F",
"y. c #848B85",
"u. c #858B8B",
"i. c #858D8B",
"p. c #8A9193",
"a. c #979E9E",
"s. c #99A29F",
"d. c #9CA69E",
"f. c #9AA0A4",
"g. c #AFB7B0",
"h. c #B0B8B2",
"j. c #B2BAB7",
"k. c #B5BBBE",
"l. c #B6C0BE",
"z. c #C0C6C4",
"x. c #CAD2D0",
"c. c #CDD3D4",
"v. c #CFD5D5",
"b. c #D5D9D6",
/* pixels */
"4 e 4 3 3 3 3 3 3 3 3 * t 0 8 3 3 8 3 3 3 3 8 4 4 4 8 3 3 4 3 4 ",
"j / Q Q Q H H Q / _ @.p ' Q Q V V U _ @.j / ! U Q H H Q ~ ) @.w ",
"q / V V j O.O.c V U ) 9 / V s O.O.c L / 0 ^ V V a O.O.c V U / 9 ",
"q ` V l u d.v.O.C U ] 9 ) H u d.v.O.L ' p ~ V l u d.v.O.V K ] 9 ",
"t Y P c X 1.9.i U H ^ 8 I K X <.9.i J ) w P K x X >.q.i K H ) t ",
"j / / Q V X X V Q U ) p ~ ~ V X X H U ) j ~ ~ Q H X X V Q U ) 0 ",
"8 v j l l t j c j V Y & v j l t a l V T 8 v l l j t a l j V P 8 ",
"# 3 3 # # # # # $ % e # % 3 # 8 % 3 $ $ # & 3 # $ $ # 3 $ % 8 X ",
">.u.p.f.f.j.x.l.z.c.c.c.c.x.x.x.x.x.x.j.x.j.x.l.z.k.k.u.u.a.a.w.",
"Z ;.;.;.1.0.8.0.r.0.0.4.4.4.4.0.0.4.4.4.4.4.0.r.9.4.3.*.*.;.;.F ",
"A >.>.;.3.q.q.0.r.r.r.q.q.q.q.q.4.q.4.4.q.q.q.q.r.3.0.8.<.3.>.X.",
"o .   > , * * O , , y y , * * - > y > , y y , , , & > > * * >   ",
"O s w 0 l O 8 C s s n I 8 a g C K z % 7 V n a V 4 O l w 0 a l 8 ",
"4 C B M Q O a ' C ` ^ #.s T K ' +.^ O s ] ' ' ' 7 % T v V n U 0 ",
"7 B M z K * q ) ) ^ ^ %.s C J ' ^ Q : v ' Q Q K 0 @ Q z g V ^ a ",
"7 B M V Q * a ' ` ^ ' &.v Q K ' } ` % z ^ ' ) Q 0 + T n n n ! g ",
"8 z z z C @ t ^ ) ) ~ #.l C Q ' } Q O n ^ Q T Q 0 O Q n g z T s ",
"> N s z V @ a ' Q Q J #.s P C ' @.) : g ' J Q ! 8 O T C v s P w ",
"4 C M z V @ 0 / Y P J $.g C T ' +.^ : g ' ` T Q l # K C v g R g ",
"7 C M z B % 0 ^ [ C P #.g P K ^ +.Q ; g ` ` Q ^ 8 + U n s l L p ",
"< J W s Q & p ' ^ C K #.g P C ` +.^ ; g ' } Q ' 7 O W v s s T p ",
"4 J z z P % t ^ C K )  .l C U ` } T ; s ] Q Q ^ w % T n g n I p ",
"7 J J M Q = a ' J ^ ~ #.a Q C ' +.^ : c [ [ ` ' 8 O Q n z n T g ",
"4 z C M P % l ~ ~ ' ~ %.j T P ~ { ^ * f ^ ^ ` ^ a + C K n n ~ g ",
",.i.p.f.s.j.x.l.z.c.c.v.x.x.x.x.x.x.x.j.x.j.x.l.z.k.k.s.u.a.a.w.",
"Z ;.;.;.,.0.0.0.r.9.9.4.4.4.4.0.0.4.4.4.4.4.0.r.0.4.3.1.*.;.;.F ",
"A ,.,.,.4.q.q.q.r.r.r.q.q.q.q.q.4.0.4.4.q.q.q.q.r.5.q.8.2.2.;.X.",
"  . . < D h.6.t.g.D < y , * * > * y , , y y , , , * * > = * -   ",
"4 r p ;.o.7.....e.i <.1 0 0 3 3 8 3 3 3 3 4 4 3 3 3 3 3 3 3 3 % ",
"n < *.6.D -.=.=.4.S ;.y.8 Q Q J I U _ @.a ~ ~ Q Q H H Q / ' @.a ",
"w =.y.S & 3 4 4 3 3 i 9.g.V a O.O.V L ~ w ~ V V a O.O.c V L ) 8 ",
"w y.D 3 & & 3 % % 3 % D b.V u d.v.O.L ' w ^ V c u d.v.O.J L ] 9 "
};
