/* XPM */
static char *ffbd9db5f5914992effaf0c7a6ca8dd4[] = {
/* columns rows colors chars-per-pixel */
"32 32 153 2 ",
"   c #110E0A",
".  c #100F0E",
"X  c #13110D",
"o  c #131212",
"O  c #111415",
"+  c #151515",
"@  c #1B1316",
"#  c #1C1316",
"$  c #1C1417",
"%  c #171318",
"&  c #1B1319",
"*  c #18131A",
"=  c #1C1718",
"-  c #1C171C",
";  c #181918",
":  c #1B1B1B",
">  c #1E1818",
",  c #1B1C1B",
"<  c #1E1F1E",
"1  c #211B15",
"2  c #211719",
"3  c #22171C",
"4  c #23181A",
"5  c #221A1A",
"6  c #21181C",
"7  c #231C1D",
"8  c #261C1C",
"9  c #271D1E",
"0  c #281A1D",
"q  c #2A1C1F",
"w  c #2D1F1F",
"e  c #301F1F",
"r  c #2F231F",
"t  c #231C20",
"y  c #2B1E20",
"u  c #2B1F22",
"i  c #2D1E22",
"p  c #232422",
"a  c #262826",
"s  c #2A2C2A",
"d  c #312021",
"f  c #332321",
"g  c #302123",
"h  c #312123",
"j  c #332523",
"k  c #352723",
"l  c #302324",
"z  c #332324",
"x  c #342425",
"c  c #352425",
"v  c #372626",
"b  c #382723",
"n  c #382625",
"m  c #3B2727",
"M  c #3C2626",
"N  c #352926",
"B  c #3B2924",
"V  c #3B2A27",
"C  c #3C2A24",
"Z  c #3C2B25",
"A  c #3E2B24",
"S  c #3E2B27",
"D  c #3F2B27",
"F  c #3E2E25",
"G  c #2F312E",
"H  c #2E302F",
"J  c #31312F",
"K  c #383A38",
"L  c #3E3F3C",
"P  c #402B25",
"I  c #422A27",
"U  c #402E25",
"Y  c #432E26",
"T  c #402A28",
"R  c #422B28",
"E  c #462F28",
"W  c #462E29",
"Q  c #4A2C29",
"!  c #492F2D",
"~  c #433129",
"^  c #46302A",
"/  c #47312D",
"(  c #4A3129",
")  c #493229",
"_  c #4A3229",
"`  c #4D332D",
"'  c #4F332E",
"]  c #4F362E",
"[  c #51332D",
"{  c #50372D",
"}  c #50352E",
"|  c #52362E",
" . c #56392B",
".. c #52382E",
"X. c #53382E",
"o. c #55392E",
"O. c #583B2D",
"+. c #583A2E",
"@. c #513631",
"#. c #593830",
"$. c #593A30",
"%. c #5C3E32",
"&. c #5B3A35",
"*. c #3E403B",
"=. c #41413D",
"-. c #46453D",
";. c #5F4032",
":. c #634332",
">. c #614135",
",. c #674336",
"<. c #6C4638",
"1. c #6F493C",
"2. c #4A4A44",
"3. c #4B4D45",
"4. c #4F4E46",
"5. c #56554E",
"6. c #585750",
"7. c #575852",
"8. c #585850",
"9. c #5C5C52",
"0. c #616058",
"q. c #626158",
"w. c #63635A",
"e. c #63645B",
"r. c #64645A",
"t. c #65655C",
"y. c #666760",
"u. c #6B7168",
"i. c #6F7268",
"p. c #6D7468",
"a. c #71756C",
"s. c #6F7675",
"d. c #77827B",
"f. c #848B85",
"g. c #858B8B",
"h. c #858D8B",
"j. c #8E968E",
"k. c #8A9193",
"l. c #979E9E",
"z. c #99A29F",
"x. c #9CA69E",
"c. c #9AA0A4",
"v. c #ACB2AD",
"b. c #AFB7B0",
"n. c #B2BAB7",
"m. c #B5BBBE",
"M. c #B6C0BE",
"N. c #BDC3C0",
"B. c #CAD2D0",
"V. c #CDD3D4",
"C. c #CFD5D5",
"Z. c #D5D9D6",
"A. c #D5DADA",
/* pixels */
"e Z.6.7 v v v q i w y 6.N.W O 8.p.s T ..i ~ W n O 9.p.s W T { i ",
"n b.4.h V W / h S ! v 4.b.[ I O O T Q ..l ..{ _ S O O T _ Q { q ",
"q f.q.S [ [ @.v &.%.A q.f.v l h l v A W t N v v c w l n l S E 3 ",
"  4.f.2.v S S i S U 2.f.4.- & & & - & & & - & & & & & & & & 7 % ",
"8.1 4.v.L s y.y.G *.v.4.1 B.B.B.B.B.B.n.B.n.B.M.N.m.m.g.g.l.l.s.",
"H 5.1 4.j.4.A.A.4.j.4.1 r.r.r.p.p.q.r.r.r.r.p.d.p.e.e.3.4.5.5.L ",
"J 8.6.1 K J f.f.H K 1 a.a.a.a.a.r.a.r.r.a.a.a.a.d.t.u.u.0.q.6.=.",
"+ o . : 1 1 q.q.1 1 p p < ; ; , , p , < p p < < < , - : ; ; - X ",
"& h r q j X 1 1 j j S E 9 h n V U b @ 9 I b C C 7 @ l r q r j 5 ",
"5 U A A _ $ h o.U ..` >.j W E  .:.` > j o.o.{ o.9 @ _ A A Z ^ g ",
"8 C C b E > i { ` ..` <.n U E o.{ ! > j o._ _ W y @ _ l j S ` h ",
"8 C V A _ # h o.{ ` o.1.f ^ U O.%.{ 3 n { +.{ _ q @ W V b A ` f ",
"8 k f C A > w ` { { @.>.h U Y o.+._ # S .._ E _ q @ ^ F f r _ v ",
"5 A f k b : r o._ _ U >.h _ Y o.>.{ > f o.U / _ q @ _ A S j W w ",
"5 A A b U $ r ` E W A ,.n U W O.>.` > v o.{ ) ) j + E A k h / j ",
"5 A Z N A > q ..{ E ^ >.l E E ` ;._ > j o.] ) ] g @ _ A f N W w ",
"5 U Y b _ @ g O.{ U E >.f ^ Y o.;.` & N $.%._ o.t $ _ A j f _ g ",
"5 U b k ^ @ r ` E E ` &.v Y Y o.%._ > j $._ _ ] q # ^ f j b W r ",
"5 U A A _ & h o.P { [ >.h ^ Y o.;...> j $.o.o.o.q $ _ V C N W l ",
"5 A C V _ ; k ` [ { ..<.r ^ F ] O.` > j ......` f $ U E I A ` j ",
"8.h.k.c.c.n.B.M.M.C.C.V.V.B.B.B.B.B.B.n.B.n.B.M.N.m.m.c.g.l.l.s.",
"H 5.5.5.7.p.p.p.d.a.p.r.r.r.r.p.p.e.r.r.r.r.p.d.p.e.q.7.4.5.5.L ",
"J 8.8.8.r.a.a.a.d.d.d.a.a.a.a.a.r.a.r.r.a.a.a.a.d.t.u.u.q.9.5.=.",
"X o o , < ; ; ; < 7 p p < ; ; & , p , < p p < < < , : , > ; , X ",
"5 t 3 3 3 5 4 3 3 3 3 $ h q 0 3 3 3 3 4 5 9 3 3 7 3 5 3 3 3 3 & ",
"c ` _ _ ! S I ! [  .:.e  ._ _ S I `  .:.l [ Q ` _ T I _ [ o.:.j ",
"q [ S S f -.-.M S I [ 3 { S h -.-.M U [ y ` S S l -.-.M S Q [ q ",
"r { I v a x.C.-.U Q +.q ..S a x.C.-.Q +.i ..S n a x.C.-.C E o.0 ",
"i U Q n O 9.i.s E I o.q ^ ^ O 8.i.s I { q W U M O 9.p.s E I { w ",
"c [ { _ S O o I _ / { q { ` S O O U Q { v [ { _ D O O T _ Q { q ",
"9 N v c l y j v l T ~ 3 N c v l l v I W t N l v l g l n l I E 3 ",
"% - - & & & & & & & 7 & : & & & & & & & & - - & & & & & & & 5 % "
};
