/* XPM */
static char *_45661d9e49f41bb8375ffdaa017b818[] = {
/* columns rows colors chars-per-pixel */
"64 64 6 1 ",
"  c None",
"a c #733E3A",
"b c #5A3336",
"c c #3E2731",
"d c #2F1F2C",
"e c #181425",
/* pixels */
"beddeaccccccccdeecccccceecccccccbeddeaccccccccdeecccccceeccccccc",
"cbeeeacccccccceaaeddddeaaecccccccbeeeacccccccceaaeddddeaaecccccc",
"ccceebccccccceaccbeddeaccbecccccccceebccccccceaccbeddeaccbeccccc",
"cccdebcccccceaccccbeeaccccbecccccccdebcccccceaccccbeeaccccbecccc",
"cccdebccccceacccccceaccccccceccccccdebccccceacccccceaccccccceccc",
"ddddedddddeacccccccebcccccccdeddddddedddddeacccccccebcccccccdedd",
"ddddeedddeaccccccccebcccccccdeedddddeedddeaccccccccebcccccccdeed",
"dddeeeeeeebcccccccceecccccccdeeedddeeeeeeebcccccccceecccccccdeee",
"eeeeeaaaaebcccccccceeeccccccdeaaeeeeeaaaaebcccccccceeeccccccdeaa",
"beeeaccccbeccccccceaaaedddddeaccbeeeaccccbeccccccceaaaedddddeacc",
"cbeaccccccbedddddeacccbedddeaccccbeaccccccbedddddeacccbedddeaccc",
"cdeacccccccbedddeacccccbeeeacccccdeacccccccbedddeacccccbeeeacccc",
"cdebcccccccceeeeacccccccbeaccccccdebcccccccceeeeacccccccbeaccccc",
"cdebcccccccceeeebccccccccebccccccdebcccccccceeeebccccccccebccccc",
"cdebcccccccceeeebccccccccecccccccdebcccccccceeeebccccccccecccccc",
"ddeecccccccceaaeccccccccceecccccddeecccccccceaaeccccccccceeccccc",
"deaaecccccceaccbecccccccdeeedddddeaaecccccceaccbecccccccdeeedddd",
"eaccbeddddeaccccbeddddddeaaaedddeaccbeddddeaccccbeddddddeaaaeddd",
"accccbeddeaccccccbeddddeacccbedeaccccbeddeaccccccbeddddeacccbede",
"ccccccbeeeacccccccbeeeeaccccceeaccccccbeeeacccccccbeeeeaccccceea",
"cccccccbeebccccccccdeeacccccceebcccccccbeebccccccccdeeacccccceeb",
"cccccccccebccccccccdeaccccccceeecccccccccebccccccccdeaccccccceee",
"eccccccccedccccccccdeaccccccceeaeccccccccedccccccccdeaccccccceea",
"beccccccdeedcccccccdebccccccceacbeccccccdeedcccccccdebccccccceac",
"cbedddddeaaedccccccdebcccccccebccbedddddeaaedccccccdebcccccccebc",
"ccbedddeaccbeddddddeebcccccccebcccbedddeaccbeddddddeebcccccccebc",
"cccceeeaccccbeddddeeedddddddeebccccceeeaccccbeddddeeedddddddeebc",
"cccceeaccccccceeeeaaaedddddeeecccccceeaccccccceeeeaaaedddddeeecc",
"cccceaccccccccdeeacccbeeeeeaaecccccceaccccccccdeeacccbeeeeeaaecc",
"cccceaccccccccdeacccccbeeeaccbeccccceaccccccccdeacccccbeeeaccbec",
"ddddeaccccccccdebccccccceaccccbeddddeaccccccccdebccccccceaccccbe",
"edddeaccccccccdeccccccccebcccccbedddeaccccccccdeccccccccebcccccb",
"beddeaccccccccdeecccccceecccccccbeddeaccccccccdeecccccceeccccccc",
"cbeeeacccccccceaaeddddeaaecccccccbeeeacccccccceaaeddddeaaecccccc",
"ccceebccccccceaccbeddeaccbecccccccceebccccccceaccbeddeaccbeccccc",
"cccdebcccccceaccccbeeaccccbecccccccdebcccccceaccccbeeaccccbecccc",
"cccdebccccceacccccceaccccccceccccccdebccccceacccccceaccccccceccc",
"ddddedddddeacccccccebcccccccdeddddddedddddeacccccccebcccccccdedd",
"ddddeedddeaccccccccebcccccccdeedddddeedddeaccccccccebcccccccdeed",
"dddeeeeeeebcccccccceecccccccdeeedddeeeeeeebcccccccceecccccccdeee",
"eeeeeaaaaebcccccccceeeccccccdeaaeeeeeaaaaebcccccccceeeccccccdeaa",
"beeeaccccbeccccccceaaaedddddeaccbeeeaccccbeccccccceaaaedddddeacc",
"cbeaccccccbedddddeacccbedddeaccccbeaccccccbedddddeacccbedddeaccc",
"cdeacccccccbedddeacccccbeeeacccccdeacccccccbedddeacccccbeeeacccc",
"cdebcccccccceeeeacccccccbeaccccccdebcccccccceeeeacccccccbeaccccc",
"cdebcccccccceeeebccccccccebccccccdebcccccccceeeebccccccccebccccc",
"cdebcccccccceeeebccccccccecccccccdebcccccccceeeebccccccccecccccc",
"ddeecccccccceaaeccccccccceecccccddeecccccccceaaeccccccccceeccccc",
"deaaecccccceaccbecccccccdeeedddddeaaecccccceaccbecccccccdeeedddd",
"eaccbeddddeaccccbeddddddeaaaedddeaccbeddddeaccccbeddddddeaaaeddd",
"accccbeddeaccccccbeddddeacccbedeaccccbeddeaccccccbeddddeacccbede",
"ccccccbeeeacccccccbeeeeaccccceeaccccccbeeeacccccccbeeeeaccccceea",
"cccccccbeebccccccccdeeacccccceebcccccccbeebccccccccdeeacccccceeb",
"cccccccccebccccccccdeaccccccceeecccccccccebccccccccdeaccccccceee",
"eccccccccedccccccccdeaccccccceeaeccccccccedccccccccdeaccccccceea",
"beccccccdeedcccccccdebccccccceacbeccccccdeedcccccccdebccccccceac",
"cbedddddeaaedccccccdebcccccccebccbedddddeaaedccccccdebcccccccebc",
"ccbedddeaccbeddddddeebcccccccebcccbedddeaccbeddddddeebcccccccebc",
"cccceeeaccccbeddddeeedddddddeebccccceeeaccccbeddddeeedddddddeebc",
"cccceeaccccccceeeeaaaedddddeeecccccceeaccccccceeeeaaaedddddeeecc",
"cccceaccccccccdeeacccbeeeeeaaecccccceaccccccccdeeacccbeeeeeaaecc",
"cccceaccccccccdeacccccbeeeaccbeccccceaccccccccdeacccccbeeeaccbec",
"ddddeaccccccccdebccccccceaccccbeddddeaccccccccdebccccccceaccccbe",
"edddeaccccccccdeccccccccebcccccbedddeaccccccccdeccccccccebcccccb",
};
