/* XPM */
static char *bca147981cf243e2d6859400930c8bd4[] = {
/* columns rows colors chars-per-pixel */
"64 64 205 2 ",
"   c black",
".  c #00001C",
"X  c gray11",
"o  c #28200C",
"O  c #302410",
"+  c #382C14",
"@  c #00002C",
"#  c #000034",
"$  c #202020",
"%  c #282828",
"&  c #2C2C2C",
"*  c gray19",
"=  c #343434",
"-  c gray22",
";  c #400000",
":  c #4C0000",
">  c #580000",
",  c #640000",
"<  c #700000",
"1  c #7C0000",
"2  c #403018",
"3  c #483818",
"4  c #543C1C",
"5  c #044000",
"6  c #044C00",
"7  c #045800",
"8  c #046400",
"9  c #047000",
"0  c #047C00",
"q  c #404000",
"w  c #585400",
"e  c #706C00",
"r  c #5C4020",
"t  c #6C4824",
"y  c #744C28",
"u  c #000040",
"i  c #00004C",
"p  c #000058",
"a  c #280040",
"s  c #340058",
"d  c #000064",
"f  c #000070",
"g  c #00007C",
"h  c #400040",
"j  c #480048",
"k  c #500050",
"l  c #580058",
"z  c #440070",
"x  c #600064",
"c  c #6C0070",
"v  c #004040",
"b  c #005858",
"n  c #006060",
"m  c #006464",
"M  c #006C6C",
"N  c #007070",
"B  c #007474",
"V  c #007878",
"C  c #007C7C",
"Z  c gray25",
"A  c #484848",
"S  c #4C4C4C",
"D  c gray33",
"F  c gray36",
"G  c #646464",
"H  c gray44",
"J  c #7C7C7C",
"K  c #880000",
"L  c #980000",
"P  c #A40000",
"I  c #A80000",
"U  c #B00000",
"Y  c #BC0000",
"T  c #C80000",
"R  c #D40000",
"E  c #E00000",
"W  c #EC0000",
"Q  c #FC0000",
"!  c #FC2020",
"~  c #9C4C00",
"^  c #A85400",
"/  c #B45400",
"(  c #80502C",
")  c #885830",
"_  c #905C34",
"`  c #9C6038",
"'  c #A0643C",
"]  c #CC6000",
"[  c #E46C00",
"{  c #FC7800",
"}  c #A86840",
"|  c #B47044",
" . c #BC7848",
".. c #FC4040",
"X. c #FC5454",
"o. c #FC5C5C",
"O. c #C87C4C",
"+. c #FC7C7C",
"@. c #048800",
"#. c #049800",
"$. c #04A400",
"%. c #00A800",
"&. c #04B000",
"*. c #04BC00",
"=. c #04C800",
"-. c #00D400",
";. c #00E000",
":. c #00EC00",
">. c #00FC00",
",. c #20FC20",
"<. c #40FC40",
"1. c #54FC54",
"2. c #60FC5C",
"3. c #848400",
"4. c #9C9C00",
"5. c #B4AC00",
"6. c #FAB000",
"7. c #FC8820",
"8. c #CCC400",
"9. c #E4D800",
"0. c #FCF400",
"q. c #FCF420",
"w. c #D08050",
"e. c #DC8854",
"r. c #FC9840",
"t. c #E88C58",
"y. c #F0945C",
"u. c #FCA85C",
"i. c #FC9C60",
"p. c #FCA470",
"a. c #80FC7C",
"s. c #FCF440",
"d. c #FCFC54",
"f. c #FCF85C",
"g. c #FCFC7C",
"h. c #000088",
"j. c #000098",
"k. c #0000A4",
"l. c #0000A8",
"z. c #0000B0",
"x. c #0000BC",
"c. c #500084",
"v. c #0000C8",
"b. c #0000D4",
"n. c #0000E0",
"m. c #0000EC",
"M. c #0000FC",
"N. c #2024FC",
"B. c #007CCC",
"V. c #4040FC",
"C. c #840084",
"Z. c #9C009C",
"A. c #B400B4",
"S. c #008484",
"D. c #008C8C",
"F. c #009898",
"G. c #009C9C",
"H. c #00A4A4",
"J. c #00A8A8",
"K. c #00B4B4",
"L. c #20B0B0",
"P. c #20B4B4",
"I. c #009CFC",
"U. c #20A8FC",
"Y. c #00CCCC",
"T. c #00E4E4",
"R. c #00FCFC",
"E. c #20FCFC",
"W. c #48C0C0",
"Q. c #74C8C8",
"!. c #40FCFC",
"~. c #54FCFC",
"^. c #5CFCFC",
"/. c #7CFCF8",
"(. c gray55",
"). c #989898",
"_. c gray66",
"`. c #B4B4B4",
"'. c #FC9C9C",
"]. c #FCB080",
"[. c #FCB890",
"{. c #FCBC9C",
"}. c #FCB8B8",
"|. c #9CFC9C",
" X c #FCFC9C",
".X c #FCC4A4",
"XX c #FCCCB0",
"oX c #FCD4BC",
"OX c #FCFCB8",
"+X c #9CDCDC",
"@X c #9CFCFC",
"#X c #B8E8E8",
"$X c #B8FCFC",
"%X c #C0C0C0",
"&X c #D0D0D0",
"*X c gainsboro",
"=X c #FCD8C4",
"-X c #FCD8D8",
";X c #FCE0D0",
":X c #FCE8DC",
">X c #FCFCD8",
",X c #D8F4F4",
"<X c #ECECEC",
"1X c gray99",
"2X c white",
/* pixels */
"& & & & & & & & & & & & & & & & & & & & & & & & & & & & & & & & & & & & & & & & & & & & & & & & & & & & & & & & & & & & & & & & ",
"_._._._._._._._._._.D - D D D D A A A A A & ).&X&X&X&X&X&X&X&X&X&X&X&X&X&X&X&X&X_.(.& - - - - - A D D D D D *X*X*X*X*X*X*X*X).  ",
"%X*X*X*X*X&X&X%X_.(.D - D D A A H %X<X<X%XD ).%X<X<X<X<X<X<X<X<X<X<X<X<X<X<X<X&X(.G & <X<X<X&XH A - D D D D *X<X%X_.(._.(._.H & ",
"*X).%X)._._.(.H D - - D A A   (.<X<X%X%X_.(.D _.&X<X%X%X%X%X%X%X%X%X%X%X%X%X%X).G & &X<X<X<X<X&XH A - - D D D _._.(.).)._.).H & ",
"*X%X)._.).(.D - - D A (.(.).& ).&X%X%X%X%X(.D (.&X<X%X_._._._._._._._._._._._.(.G J <X%X%X%X&X`.(.& ).).- - D G (.(._._.(.J H & ",
"*X)._.).J D - - D A _.&X<X<X%X& D (.%X_._.(.H D (.&X`._._._._._._._._._._._.).G & &X%X_._._.%XD & ).<X&XJ D - D H (.).J _._.H & ",
"*X_.(.J A - - D A &X<X<X&X&X*X(.& D (._._._.(.D (.%X%X_._._._._._._._._._._.(.G J <X_._._._.D & ).<X&X_.).J D - D H (._._._.H & ",
"*X_.(.H - - D A &X<X&X&X_._._.*X(.& D (._._.(.H D (.%X(.(.(.(.(.(.(.(.(.(.(.G & &X%X_._._.D & ).<X&X_._._.).J D - A H (._._.H & ",
"&X_.H A - D A _.<X&X%X_._._._._.&X(.& D (.(.(.H D D D D D D D D D D D D D D D & `.`._._.D & ).<X&X_._._._._.).G D - A D H H H & ",
"%X(.H - A A D D J *X_._._._._._._.&X(.& D D D D D & & & & & & & & & & & $ & & D D (.`.H & ).<X&X_._._._._._._.J D D - A D & & & ",
"(.H - A A `.<X).D J _.%X_._._._._.(.%X(.& D - -                                 - - D & ).<X&X_._._._._._._.J D & - - & A A - - ",
"D - - A `.<X&X<X).& D J _._._._.(.J G D D                                             D D H &X_._._._._.J D & - ).).H - & - A A ",
"D A A (.<X&X&X&X<X%X& D G J (.(.J - - - -                                           $ - - - (.&X_._.J G - & _.<X&X&X`.H - & - D ",
"D D A `.&X%X_._.&X<X%XH & D G G D - -                                               $ $ $ - - (.&XG D & H _.<X&X_._._.J - - & D ",
"D D H <X&X_._._._._.<X<XJ & & D -                                                     $ $ $ $ - D & & _.<X<X%X_._._._.`.H - & A ",
"D D (.<X&X_._._._._._.&X1XJ &                                                             $ $ $   & _.1X*X%X_._._._._._.H - & - ",
"D A `.<X&X_._._._._._.(.J D -                                                                   $ D (.<X<X%X_._._._._._.H - & - ",
"D A `.&X&X_._._._._._.(.D -                                                                 $ $ $ - D _.<X<X%X_._._._._.J - $ & ",
"D A `.(.(.J (.(.(.(.(.J D                                                                     $ $ $ D H <X&X%XJ J D D D D D $ & ",
"D - - & & & D D D D H D -                                                                     $ $ $ - H D H D D D & & & & & & $ ",
"A `.<X<X`.(.J & & & & - -                                                                       $ $ - $ - & & & H %X<X<X&X(.& $ ",
"A `.<X&X&X&X<X<X*X).D - -                                                                             $ - (.&X<X<X&X%X`.`.H & $ ",
"A `.<X%X_._._._._.%XJ -                                                                           & - D H %X<X%X%X_._._._.D & $ ",
"A `.<X%X_._._._._._.H -                                                                         $ & - D H %X<X%X_._._._.(.D & $ ",
"A `.<X%X_._._._._.(.G -                                                                         $ & - D H %X<X%X_._._._.(.D & $ ",
"A `.<X%X_._._._._.(.D -                                                                         $ & - D H %X<X%X(.(.(.(.(.D & $ ",
"A `.&X_.(.(.(.(.(.(.D -                                                                         $ & - D H ).H D D D D D D D & $ ",
"A _.J D D D D D D D D -                                                                                                     & $ ",
"A - - & &                                                                                       $ & - D H %X<X<X<X<X<X<X&X(.& $ ",
"A `.<X<X<X<X<X<X<X&XH -                                                                         $ & - D H %X<X%X%X%X%X%X_.H & $ ",
"A `.<X%X%X%X%X%X%X(.D -                                                                         $ & - D H %X<X%X_._._._._.D & $ ",
"A `.<X%X_._._._._.(.D -                                                                         $ & - D J %X<X%X_._._._.(.D & $ ",
"A `.<X%X_._._._._.(.D -                                                                         $ & - D (.%X<X%X_._._._.(.D & $ ",
"A `.<X%X_._._._._.(.D -                                                                       $ $ & - D ).%X<X%X_._._._.(.D & $ ",
"A `.<X%X_._._._._.(.D -                                                                       $ $ & - D ).%X<X%X_.(.(.(.(.D & $ ",
"A `.<X_.(.(.(.(.(.(.D -                                                                       $ $ $ - D G J H D D D D D D D & $ ",
"A _.J D D D D D D D D -                                                                                                     & $ ",
"A - - & &                                                                                 $ & & * * A H ).&X<X<X<X<X<X<X&X(.& $ ",
"A `.<X<X<X<X<X<X<X&XH -                                                                   $ & & * * A H ).%X<X%X%X%X%X%X%XH & $ ",
"A `.<X%X%X%X%X%X%X_.D -                                                                 $ $ & & * = A H ).%X<X%X_._._._._.D & $ ",
"A `.<X%X_._._._._.(.D -                                                                 $ $ & & = = D H ).%X<X%X_._._._.(.D & $ ",
"A `.<X%X_._._._._.(.D -                                                                 $ $ & * = - D H ).%X<X%X_._._._.(.D & $ ",
"A `.<X%X_._._._._.(.D -                                                                 $ $ & * = A D H ).%X<X%X_._._._.(.D & $ ",
"A `.<X_.(.(.(.(.(.(.D -                                                                 $ $ & * - A D H ).%X<X%X_._._._.(.D & $ ",
"A _.J D D D D D D D D -                                                                   $ & * - A D H ).%X<X%X_.(.(.(.(.D & $ ",
"A - - & &                                                                                   $ $ $ $ - D G J H D D D D D D D & $ ",
"A `.<X<X<X<X<X<X<X&XH -                                                                                                     & $ ",
"A `.<X%X%X%X%X%X%X_.D -                                                                   $ & * = - D H ).%X<X<X<X<X<X<X&X(.& $ ",
"A `.<X%X_._._._._.(.D -                                                                   $ & * = - A H ).%X<X%X%X%X%X%X_.H & $ ",
"A `.<X_.(.(.(.(.(.(.D -                                                                   $ & * = - A H ).%X<X%X_._._._._.D & $ ",
"A _.J D D D D D D D D -                                                                   $ & * = - A H ).%X<X%X_.(.(.(.(.D & $ ",
"A - - &                                                                                   $ $ $ $ $ - D G J H D D D D D D D & $ ",
"A `.<X<X<X<X<X<X<X&XH -                                                                                                     & $ ",
"A `.<X%X%X%X%X%X%X_.D -                                                                 $ $ & * = - A H ).%X<X<X<X<X<X<X&X(.& $ ",
"A `.<X%X_._._._._.(.D -                                                                 $ $ & * = - A H ).%X<X%X%X%X%X%X_.H & $ ",
"A `.<X%X_._._._._.(.D -                                                                 $ $ & * = - A H ).%X<X%X_._._._.(.D & $ ",
"A `.<X_.(.(.(.(.(.(.D -                                                                 $ $ & * = - A H ).%X<X%X_._._._.(.D & $ ",
"A _.J D D D D D D D D -                                                                 $ $ & * = - D H ).%X<X_.(.(.(.(.(.D & $ ",
"A - - &                                                                                 $ $ $ $ $ $ - D G J H D D D D D D D & $ ",
"A &X<X<X<X<X<X<X<X&XH -                                                                                                     & $ ",
"A &X<X_._._._._._._.D -                                                                         = - D H ).&X<X<X<X<X<X<X&X(.& $ ",
"A &X<X_.(.(.(.(.(.(.D -                                                                         = - D H ).&X<X%X_._.(.(.(.H & $ ",
"A _.J D D D D D D D D D                                                                       & $ $ - D G J H D D D D D D D & $ ",
"A A A A A A A A A A A A A -                                                                   - & $ A A A A A A A A A A A A A A "
};
