/* XPM */
static char *_d9a17860e2c46c58defb6fb82dec151[] = {
/* columns rows colors chars-per-pixel */
"64 64 28 1 ",
"  c None",
". c gray22",
"X c #7C0000",
"o c #404000",
"O c #585400",
"+ c #706C00",
"@ c #484848",
"# c gray33",
"$ c #646464",
"% c #980000",
"& c #C80000",
"* c #A85400",
"= c #FC7C7C",
"- c #848400",
"; c #9C9C00",
": c #B4AC00",
"> c #CCC400",
", c #E4D800",
"< c #FCF400",
"1 c #FCF420",
"2 c #FCFC54",
"3 c #FCF85C",
"4 c #FCFC7C",
"5 c #FC9C9C",
"6 c #FCFC9C",
"7 c #FCFCB8",
"8 c #FCFCD8",
"9 c gray99",
/* pixels */
"                                                                ",
"                                                                ",
"                                                                ",
"                                                                ",
"                                                                ",
"                                                                ",
"                                                                ",
"                                                                ",
"                                                                ",
"                                                                ",
"                                                                ",
"                                                                ",
"                                                                ",
"                                                                ",
"                                                                ",
"                                                                ",
"                                                                ",
"                                                                ",
"                                                                ",
"                                                                ",
"                                                                ",
"                                                                ",
"                                                                ",
"                                                                ",
"                                                                ",
"                                                                ",
"                                                                ",
"                                                                ",
"                                                                ",
"                                                                ",
"                                                                ",
"                                                                ",
"                          >>,,,,<<<<222222                      ",
"                          >>,,,,<<<<222222                      ",
"                      44--;;::,,<<<<<<2222  **                  ",
"                      44--;;::,,<<<<<<2222  **                  ",
"                      66999988662222<<<<;;--OO                  ",
"                      66999988662222<<<<;;--OO                  ",
"                      ==995588==22&&<<%%;;XXOO                  ",
"                      ==995588==22&&<<%%;;XXOO                  ",
"                        66,,77,,22::<<++;;oo                    ",
"                        66,,77,,22::<<++;;oo                    ",
"                        2244776622<<,,;;--OO                    ",
"                        2244776622<<,,;;--OO                    ",
"                          223377<<,,;;--OO                      ",
"                          223377<<,,;;--OO                      ",
"                            >>::--OOOOoo                        ",
"                            >>::--OOOOoo                        ",
"                              >>>>--oo                          ",
"                              >>>>--oo                          ",
"                              11>>--oo                          ",
"                              11>>--oo                          ",
"                            --9922>>--oo                        ",
"                            --9922>>--oo                        ",
"                              ------oo                          ",
"                              ------oo                          ",
"                            229922-->>OO      $$$$$$$$$$$$$$    ",
"                            229922-->>OO      $$$$$$$$$$$$$$    ",
"                        ;;7799776622--,,--OO......@@@@####$$    ",
"                        ;;7799776622--,,--OO......@@@@####$$    ",
"                        ;;>>111111,,::::;;##############$$$$    ",
"                        ;;>>111111,,::::;;##############$$$$    ",
"                                                                ",
"                                                                "
};
