/* XPM */
static char *_8aa5d54ac51460ce129f7b07fe61418[] = {
/* columns rows colors chars-per-pixel */
"80 7 2 1 ",
"  c None",
". c black",
/* pixels */
"  ....     ..     ....    ....   ..  ..  ......   ....   ......   ....    ....  ",
" ..  ..   ...    ..  ..  ..  ..  ..  ..  ..      ..  ..      ..  ..  ..  ..  .. ",
" ..  ..    ..        ..      ..  ..  ..  .....   ..         ..   ..  ..  ..  .. ",
" ..  ..    ..      ...     ...   ..  ..      ..  .....     ..     ....    ..... ",
" ..  ..    ..     ..         ..   .....      ..  ..  ..    ..    ..  ..      .. ",
" ..  ..    ..    ..      ..  ..      ..  ..  ..  ..  ..    ..    ..  ..  ..  .. ",
"  ....    ....   ......   ....       ..   ....    ....     ..     ....    ....  "
};
